<svg width="179" height="140" viewBox="0 0 179 140" fill="none" xmlns="http://www.w3.org/2000/svg">
<ellipse cx="112.678" cy="56.1273" rx="48.2908" ry="48.079" fill="url(#paint0_linear_21_23)"/>
<path fill-rule="evenodd" clip-rule="evenodd" d="M77.6354 54.9493C82.0283 52.7389 87.9913 50.8076 91.6314 50.4161C94.6954 50.0864 99.9171 50.1892 103.011 50.6398C109.527 51.5883 117.174 54.7754 121.624 58.3972C122.466 59.0822 123.526 59.6771 123.979 59.719C124.729 59.788 124.618 59.5128 122.75 56.6715C118.64 50.417 113.592 46.9134 106.168 45.1629C98.1074 43.2621 88.3101 45.0021 81.4234 49.5571C79.1873 51.0362 74.9015 54.9402 73.6504 56.6373C73.4462 56.9145 75.2395 56.1548 77.6354 54.9493Z" fill="#13EA00"/>
<path fill-rule="evenodd" clip-rule="evenodd" d="M86.152 49.4032C86.6545 46.402 88.2351 42.734 89.8619 40.7938C91.231 39.1606 94.1231 36.6296 96.1639 35.2781C100.462 32.4311 107.25 29.8774 112.685 29.062C113.713 28.9076 114.782 28.6119 115.061 28.4048C115.522 28.0618 115.231 28.012 111.84 27.8526C104.374 27.5013 98.717 28.6558 93.2572 31.6448C87.3285 34.8906 83.5268 40.3731 83.6552 45.4918C83.6969 47.1539 84.6754 50.7453 85.4297 52.0053C85.5529 52.2111 85.8779 51.04 86.152 49.4032Z" fill="#13EA00"/>
<path fill-rule="evenodd" clip-rule="evenodd" d="M80.0825 52.0241C83.6887 48.6805 88.8806 45.1689 92.2687 43.7818C95.1205 42.614 100.165 41.2625 103.262 40.8361C109.785 39.9374 118.017 40.8751 123.298 43.1183C124.297 43.5425 125.48 43.8196 125.927 43.734C126.667 43.5919 126.484 43.3584 123.9 41.1477C118.214 36.281 112.392 34.3174 104.775 34.6976C96.5028 35.1106 87.5743 39.5033 82.2237 45.792C80.4865 47.8339 77.4536 52.7747 76.7232 54.7526C76.604 55.0756 78.1157 53.8476 80.0825 52.0241Z" fill="#0FBF0B"/>
<path fill-rule="evenodd" clip-rule="evenodd" d="M74.2635 5.19531C77.1499 9.17682 80.0128 14.7527 80.9831 18.2829C81.8001 21.2543 82.5362 26.4249 82.5877 29.5505C82.6968 36.1344 80.7777 44.1936 77.9167 49.1674C77.3756 50.1084 76.9584 51.2496 76.9897 51.7036C77.042 52.455 77.2958 52.3014 79.8007 50.002C85.3148 44.9414 87.9632 39.3968 88.5003 31.7889C89.0833 23.5274 85.7943 14.1361 80.1934 8.06925C78.3748 6.0994 73.8339 2.49535 71.958 1.53275C71.6517 1.37563 72.6893 3.02385 74.2635 5.19531Z" fill="#0FBF0B"/>
<path fill-rule="evenodd" clip-rule="evenodd" d="M80.0801 54.8503C85.4812 54.6561 92.3546 55.6849 96.2131 57.2651C99.461 58.5949 104.711 61.6649 107.655 63.9547C113.855 68.7774 120.243 76.9444 123.204 83.8337C123.764 85.1369 124.584 86.4538 125.025 86.7601C125.756 87.2666 125.762 86.8714 125.085 82.3825C123.597 72.502 119.98 65.4185 113.203 59.1145C105.844 52.2691 95.165 48.8458 86.2309 50.468C83.33 50.9948 77.312 53.2971 75.3164 54.6432C74.9906 54.8631 77.1344 54.9562 80.0801 54.8503Z" fill="#0FBF0B"/>
<path fill-rule="evenodd" clip-rule="evenodd" d="M42.4103 54.7048C45.5684 52.3533 49.8994 49.8874 52.5758 48.9168C54.8285 48.0997 58.6953 47.1585 61.002 46.8655C65.8612 46.248 71.6492 46.9316 75.0908 48.5293C75.7419 48.8314 76.5502 49.0302 76.8872 48.9709C77.4448 48.8725 77.3514 48.7072 75.8524 47.1394C72.5535 43.6882 68.6748 42.2865 63.1116 42.535C57.0704 42.805 49.8953 45.8835 44.9894 50.3099C43.3966 51.7472 40.3877 55.228 39.5324 56.6226C39.3928 56.8504 40.6879 55.9873 42.4103 54.7048Z" fill="#0FBF0B"/>
<path fill-rule="evenodd" clip-rule="evenodd" d="M44.4585 25.2625C48.397 25.1881 53.4346 26.2941 56.2827 27.8583C58.68 29.1747 62.574 32.1688 64.7684 34.3824C69.3909 39.0446 74.2174 46.8575 76.5167 53.3994C76.9517 54.6369 77.5763 55.8925 77.9047 56.1896C78.4484 56.6807 78.4444 56.309 77.8606 52.0717C76.5762 42.7447 73.7938 36.0069 68.721 29.9392C63.2124 23.3505 55.3488 19.9152 48.8602 21.2624C46.7534 21.6999 42.4069 23.7455 40.9773 24.9721C40.7439 25.1725 42.3106 25.3031 44.4585 25.2625Z" fill="#13EA00"/>
<path fill-rule="evenodd" clip-rule="evenodd" d="M51.6555 7.28169C56.7082 10.0644 62.4878 14.656 65.2213 18.0588C67.5222 20.9229 70.7728 26.3104 72.3053 29.7987C75.5339 37.1464 77.2297 47.349 76.4335 54.6328C76.283 56.0107 76.3633 57.5411 76.6121 58.0338C77.0244 58.8489 77.2308 58.5266 78.8985 54.4632C82.57 45.5195 82.8631 37.7183 79.8612 28.8374C76.6012 19.1937 68.5516 10.5578 59.5306 7.02564C56.6015 5.87882 49.9085 4.49511 47.392 4.51592C46.9811 4.51941 48.8999 5.764 51.6555 7.28169Z" fill="#0FBF0B"/>
<path fill-rule="evenodd" clip-rule="evenodd" d="M48.6574 100.271C49.6356 101.864 51.6459 103.447 52.424 103.237C52.7219 103.157 52.7275 102.911 52.4379 102.69C52.1476 102.47 51.8522 100.816 51.7814 99.015C51.6644 96.0404 51.8683 95.3734 54.0072 91.7315C56.5938 87.3289 58.1271 85.313 65.4046 76.7472C74.7812 65.7103 78.205 60.3267 79.4697 54.6297C80.1698 51.4778 80.2851 52.1033 80.2851 49.5617C80.2851 48.2909 79.9834 46.3847 79.4697 44.4785L78.3789 42.3605L78.0203 44.4785L77.0181 49.1381C75.5355 56.3394 73.6713 57.0859 55.2689 79.4931C54.2721 80.7066 53.4757 81.7687 53.4986 81.8535C53.5215 81.9384 52.7638 83.1127 51.8145 84.463C48.9299 88.5676 46.6111 95.9752 47.5209 98.1825C47.684 98.5798 48.1958 99.5197 48.6574 100.271Z" fill="#703700"/>
<path fill-rule="evenodd" clip-rule="evenodd" d="M164.758 72.2394C164.443 77.7784 162.764 84.7046 160.817 88.4962C159.179 91.6877 155.608 96.7585 153.037 99.5465C147.622 105.42 138.839 111.162 131.66 113.525C130.302 113.972 128.905 114.683 128.557 115.105C127.981 115.803 128.376 115.847 132.936 115.588C142.972 115.018 150.408 112.003 157.362 105.683C164.912 98.8209 169.349 88.2354 168.567 78.9479C168.313 75.9322 166.575 69.5597 165.415 67.3905C165.225 67.0363 164.93 69.2185 164.758 72.2394Z" fill="#03AFF0"/>
<path fill-rule="evenodd" clip-rule="evenodd" d="M27.8397 108.846C23.9443 109.222 19.4857 110.307 19.4857 110.879C19.4857 111.098 19.9984 111.147 20.6252 110.99C21.252 110.832 24.8886 110.935 28.7061 111.22C35.0116 111.69 36.2953 111.953 42.7231 114.093C50.4932 116.681 53.8534 118.105 67.6999 124.678C85.5411 133.147 94.8946 136.49 106.128 138.411C112.343 139.474 114.203 139.602 120.21 139.377C124.8 139.206 128.339 138.801 130.713 138.179L134.293 137.24L128.326 137.189C113.622 137.065 104.259 133.982 67.6789 117.222C65.6978 116.315 63.9211 115.572 63.7301 115.572C63.5392 115.572 61.5051 114.835 59.2104 113.935C52.2341 111.198 38.0095 108.238 32.8644 108.453C31.9388 108.492 29.6775 108.669 27.8397 108.846Z" fill="#273A8E"/>
<path fill-rule="evenodd" clip-rule="evenodd" d="M178.072 87.0141C177.965 87.3439 177.501 89.2284 177.04 91.2026C173.396 106.824 156.92 119.953 139.138 121.404C133.803 121.839 125.51 121.385 121.592 120.444C112.172 118.18 98.2198 113.131 88.0204 108.295C78.6869 103.87 64.2627 98.4522 56.5513 96.4757C49.0753 94.559 34.8062 94.3285 28.2453 96.0179C18.3179 98.574 8.40729 103.671 2.14804 109.439L-0.00012207 111.419L2.6254 109.938C13.3213 103.904 20.531 101.829 32.2222 101.42C45.4687 100.956 53.9139 103.143 71.8438 111.679C82.3412 116.676 86.5248 118.69 88.5517 119.722C89.7332 120.323 91.2369 120.971 91.8933 121.162C92.5497 121.353 94.4997 122.124 96.2273 122.875C101.377 125.115 111.331 128.123 117.194 129.212C125.056 130.672 136.612 130.636 142.967 129.132C159.775 125.153 173.061 112.967 177.019 97.9034C178.229 93.2956 179.166 86.415 178.582 86.415C178.409 86.415 178.18 86.6849 178.072 87.0141Z" fill="#0B75BF"/>
<defs>
<linearGradient id="paint0_linear_21_23" x1="112.678" y1="8.47194" x2="112.678" y2="104.206" gradientUnits="userSpaceOnUse">
<stop stop-color="#F2CF15"/>
<stop offset="1" stop-color="#E06C00"/>
</linearGradient>
</defs>
</svg>
