<svg width="318" height="120" viewBox="0 0 318 120" fill="none" xmlns="http://www.w3.org/2000/svg">
<ellipse cx="109.921" cy="66.5395" rx="37.5785" ry="37.4137" fill="url(#paint0_linear_23_2)"/>
<path fill-rule="evenodd" clip-rule="evenodd" d="M150.521 71.8484C150.312 75.8111 149.2 80.7661 147.91 83.4786C146.825 85.7619 144.459 89.3896 142.756 91.3841C139.169 95.5858 133.35 99.6942 128.594 101.385C127.694 101.704 126.769 102.213 126.538 102.515C126.157 103.014 126.418 103.045 129.439 102.86C136.088 102.452 141.015 100.295 145.621 95.7743C150.623 90.865 153.562 83.2921 153.044 76.6477C152.876 74.4903 151.724 69.9314 150.956 68.3795C150.83 68.1261 150.635 69.6873 150.521 71.8484Z" fill="#03AFF0"/>
<path fill-rule="evenodd" clip-rule="evenodd" d="M82.6512 65.6229C86.0697 63.9028 90.7099 62.3999 93.5426 62.0953C95.9269 61.8387 99.9903 61.9187 102.398 62.2694C107.468 63.0075 113.419 65.4876 116.882 68.306C117.537 68.839 118.362 69.3019 118.714 69.3346C119.298 69.3882 119.212 69.1741 117.758 66.9631C114.56 62.096 110.631 59.3696 104.855 58.0074C98.582 56.5282 90.958 57.8822 85.5989 61.4269C83.8589 62.5778 80.5238 65.6158 79.5503 66.9365C79.3913 67.1522 80.7868 66.5609 82.6512 65.6229Z" fill="#13EA00"/>
<path fill-rule="evenodd" clip-rule="evenodd" d="M89.2785 61.3068C89.6696 58.9713 90.8996 56.117 92.1655 54.6072C93.2309 53.3363 95.4814 51.3667 97.0695 50.3151C100.414 48.0996 105.696 46.1124 109.926 45.4778C110.726 45.3577 111.558 45.1276 111.775 44.9664C112.134 44.6995 111.907 44.6607 109.268 44.5367C103.458 44.2634 99.0563 45.1617 94.8076 47.4877C90.194 50.0135 87.2357 54.2799 87.3356 58.2631C87.368 59.5565 88.1295 62.3512 88.7165 63.3317C88.8124 63.4918 89.0652 62.5805 89.2785 61.3068Z" fill="#13EA00"/>
<path fill-rule="evenodd" clip-rule="evenodd" d="M84.5553 63.3463C87.3615 60.7445 91.4017 58.0119 94.0383 56.9324C96.2574 56.0237 100.183 54.9719 102.593 54.6402C107.669 53.9408 114.075 54.6705 118.184 56.4161C118.962 56.7462 119.882 56.9619 120.23 56.8953C120.806 56.7847 120.664 56.603 118.653 54.8826C114.228 51.0955 109.698 49.5675 103.77 49.8633C97.3331 50.1847 90.3852 53.603 86.2215 58.4967C84.8696 60.0857 82.5096 63.9305 81.9411 65.4696C81.8484 65.7209 83.0248 64.7654 84.5553 63.3463Z" fill="#0FBF0B"/>
<path fill-rule="evenodd" clip-rule="evenodd" d="M80.0272 26.9057C82.2733 30.004 84.5011 34.343 85.2562 37.0901C85.8919 39.4024 86.4648 43.426 86.5049 45.8583C86.5897 50.9817 85.0963 57.2531 82.87 61.1236C82.4489 61.8558 82.1243 62.7439 82.1487 63.0972C82.1894 63.6819 82.3868 63.5624 84.3361 61.7731C88.627 57.835 90.6879 53.5204 91.1059 47.6001C91.5596 41.1712 89.0001 33.8632 84.6417 29.1421C83.2265 27.6093 79.6929 24.8047 78.2331 24.0556C77.9947 23.9333 78.8021 25.2159 80.0272 26.9057Z" fill="#0FBF0B"/>
<path fill-rule="evenodd" clip-rule="evenodd" d="M84.5537 65.5458C88.7567 65.3947 94.1054 66.1953 97.108 67.425C99.6354 68.4598 103.721 70.8488 106.012 72.6306C110.837 76.3835 115.808 82.7388 118.112 88.0999C118.548 89.114 119.185 90.1388 119.529 90.3772C120.098 90.7713 120.102 90.4638 119.575 86.9707C118.417 79.2819 115.603 73.7697 110.329 68.8641C104.603 63.5372 96.2924 60.8733 89.3401 62.1357C87.0827 62.5456 82.3997 64.3371 80.8468 65.3847C80.5932 65.5558 82.2615 65.6282 84.5537 65.5458Z" fill="#0FBF0B"/>
<path fill-rule="evenodd" clip-rule="evenodd" d="M55.2402 65.4326C57.6977 63.6027 61.068 61.6838 63.1507 60.9285C64.9037 60.2926 67.9127 59.5602 69.7078 59.3322C73.489 58.8517 77.9931 59.3836 80.6712 60.6269C81.1779 60.862 81.8069 61.0167 82.0691 60.9706C82.5031 60.894 82.4304 60.7653 81.2639 59.5454C78.6968 56.8597 75.6785 55.7689 71.3493 55.9624C66.6483 56.1725 61.0648 58.568 57.2472 62.0126C56.0077 63.131 53.6662 65.8397 53.0007 66.9249C52.892 67.1022 53.8999 66.4305 55.2402 65.4326Z" fill="#0FBF0B"/>
<path fill-rule="evenodd" clip-rule="evenodd" d="M56.8338 42.5214C59.8986 42.4635 63.8187 43.3241 66.035 44.5414C67.9006 45.5658 70.9307 47.8957 72.6383 49.6182C76.2355 53.2463 79.9913 59.326 81.7805 64.4168C82.1191 65.3797 82.6051 66.3568 82.8607 66.588C83.2837 66.9702 83.2807 66.681 82.8264 63.3836C81.8268 56.1255 79.6617 50.8824 75.7142 46.1607C71.4275 41.0335 65.3083 38.3602 60.259 39.4086C58.6196 39.7491 55.2373 41.3409 54.1248 42.2954C53.9432 42.4514 55.1623 42.553 56.8338 42.5214Z" fill="#13EA00"/>
<path fill-rule="evenodd" clip-rule="evenodd" d="M62.4346 28.5293C66.3664 30.6947 70.864 34.2678 72.9911 36.9157C74.7816 39.1445 77.3112 43.3369 78.5037 46.0514C81.0161 51.7692 82.3357 59.7086 81.7161 65.3766C81.599 66.4489 81.6615 67.6398 81.8551 68.0232C82.1759 68.6574 82.3366 68.4066 83.6343 65.2446C86.4914 58.2849 86.7194 52.2142 84.3834 45.3034C81.8466 37.7988 75.5826 31.0786 68.5628 28.33C66.2834 27.4376 61.0751 26.3608 59.1168 26.377C58.7971 26.3797 60.2902 27.3482 62.4346 28.5293Z" fill="#0FBF0B"/>
<path fill-rule="evenodd" clip-rule="evenodd" d="M59.7772 97.9776C57.1824 98.245 54.2124 99.0174 54.2124 99.4247C54.2124 99.5806 54.5539 99.6158 54.9714 99.5035C55.389 99.391 57.8114 99.4646 60.3543 99.6673C64.5546 100.002 65.4096 100.189 69.6913 101.712C74.8672 103.554 77.1055 104.568 86.329 109.247C98.2134 115.275 104.444 117.655 111.927 119.022C116.067 119.779 117.306 119.869 121.307 119.709C124.365 119.587 126.722 119.3 128.303 118.856L130.688 118.188L126.713 118.152C116.919 118.063 110.682 115.869 86.315 103.94C84.9954 103.294 83.8118 102.765 83.6846 102.765C83.5574 102.765 82.2025 102.241 80.6739 101.6C76.0269 99.6519 66.5515 97.545 63.1243 97.6982C62.5077 97.7255 61.0014 97.8514 59.7772 97.9776Z" fill="#273A8E"/>
<path fill-rule="evenodd" clip-rule="evenodd" d="M67.1053 90.1059C67.6728 91.0668 68.8229 92.0315 69.2602 91.9135C69.4276 91.8683 69.4285 91.7214 69.2628 91.5869C69.0969 91.4524 68.9143 90.4616 68.8572 89.3853C68.7628 87.6074 68.8715 87.2109 70.0445 85.056C71.4631 82.4508 72.3095 81.2614 76.3369 76.2142C81.5259 69.711 83.4078 66.528 84.0676 63.1372C84.4328 61.2612 84.5039 61.6359 84.4797 60.1178C84.4676 59.3587 84.2791 58.2173 83.9709 57.0738L83.3349 55.7983L83.1526 57.06L82.6311 59.8337C81.8626 64.1209 80.8171 64.5491 70.6404 77.7579C70.0891 78.4732 69.6496 79.1 69.6633 79.1509C69.6771 79.2018 69.2605 79.896 68.7373 80.6935C67.1478 83.1177 65.9091 87.5203 66.4437 88.8474C66.5397 89.0863 66.8375 89.6526 67.1053 90.1059Z" fill="#5A2D02"/>
<path fill-rule="evenodd" clip-rule="evenodd" d="M159.569 82.2998C159.498 82.5377 159.189 83.8971 158.884 85.3212C156.465 96.5901 145.527 106.06 133.723 107.107C130.181 107.421 124.675 107.094 122.075 106.415C115.821 104.782 106.559 101.139 99.7883 97.6511C93.5924 94.459 84.017 90.5508 78.8978 89.125C73.9348 87.7424 64.4624 87.5761 60.107 88.7948C53.5168 90.6386 46.9377 94.3155 42.7825 98.4764L41.3564 99.9046L43.0994 98.8359C50.1998 94.4832 54.9859 92.9865 62.7471 92.6916C71.5407 92.3572 77.1469 93.9345 89.0496 100.092C96.0182 103.697 98.7955 105.15 100.141 105.894C100.925 106.327 101.924 106.795 102.359 106.933C102.795 107.071 104.09 107.627 105.236 108.169C108.655 109.784 115.263 111.954 119.155 112.74C124.374 113.793 132.046 113.767 136.265 112.682C147.422 109.811 156.242 101.021 158.869 90.1549C159.673 86.831 160.295 81.8677 159.907 81.8677C159.792 81.8677 159.64 82.0623 159.569 82.2998Z" fill="#0B75BF"/>
<path d="M48.0125 99.6963C48.0125 104.316 48.4239 107.703 49.2467 109.854C47.9176 110.994 46.4303 111.563 44.7847 111.563C43.5189 111.563 42.4746 111.183 41.6519 110.424C40.8291 109.665 40.4177 108.652 40.4177 107.386L40.3228 78.0511H9.37386V99.6963C9.37386 104.316 9.78524 107.703 10.608 109.854C9.27892 110.994 7.7916 111.563 6.14606 111.563C4.88025 111.563 3.83597 111.183 3.01319 110.424C2.19042 109.665 1.77903 108.652 1.77903 107.386L1.6841 55.7413C1.6841 51.3742 1.27271 47.9882 0.449941 45.5832C1.77903 44.444 3.26635 43.8744 4.9119 43.8744C6.24099 43.8744 7.31693 44.2541 8.1397 45.0136C8.96247 45.7098 9.37386 46.7224 9.37386 48.0515V73.4942H40.3228V55.7413C40.3228 51.3742 39.9114 47.9882 39.0886 45.5832C40.4177 44.444 41.905 43.8744 43.5506 43.8744C44.8797 43.8744 45.9556 44.2541 46.7784 45.0136C47.6011 45.7098 48.0125 46.7224 48.0125 48.0515V99.6963ZM206.43 81.5637C206.43 91.5635 204.468 99.095 200.544 104.158C196.62 109.221 190.829 111.753 183.171 111.753C175.639 111.753 170.006 109.316 166.272 104.443C162.538 99.5064 160.671 91.88 160.671 81.5637V55.7413C160.671 51.1844 160.291 47.7983 159.532 45.5832C160.861 44.444 162.317 43.8744 163.899 43.8744C165.228 43.8744 166.272 44.2541 167.032 45.0136C167.854 45.7098 168.266 46.7224 168.266 48.0515V81.8485C168.266 90.9623 169.468 97.6394 171.873 101.88C174.278 106.12 178.044 108.24 183.171 108.24C188.424 108.24 192.348 106.025 194.943 101.595C197.601 97.1014 198.93 90.5192 198.93 81.8485V55.7413C198.93 51.3742 198.519 47.9882 197.696 45.5832C199.025 44.444 200.481 43.8744 202.063 43.8744C203.329 43.8744 204.373 44.2541 205.196 45.0136C206.018 45.7731 206.43 46.7857 206.43 48.0515V81.5637ZM242.999 111.753C235.974 111.753 230.658 110.456 227.05 107.861C223.506 105.203 221.734 101.817 221.734 97.7027C221.734 94.0318 223.506 92.1964 227.05 92.1964C227.746 92.1964 228.316 92.2281 228.759 92.2913C228.442 93.2407 228.348 94.5698 228.474 96.2786C228.664 99.9495 230.088 102.861 232.746 105.013C235.468 107.165 239.139 108.24 243.759 108.24C247.936 108.24 251.259 107.259 253.727 105.297C256.258 103.335 257.524 100.456 257.524 96.6584C257.524 94.1901 256.955 92.0698 255.815 90.2977C254.74 88.5256 253.157 86.88 251.069 85.3611C249.043 83.8421 246.132 82.0383 242.335 79.9498C238.031 77.5447 234.645 75.4562 232.177 73.684C229.708 71.8486 227.746 69.76 226.291 67.4183C224.835 65.0766 224.107 62.2918 224.107 59.064C224.107 53.8742 226.006 49.9819 229.803 47.387C233.601 44.7921 238.411 43.4946 244.233 43.4946C249.929 43.4946 254.486 44.5389 257.904 46.6275C261.385 48.716 263.125 51.5958 263.125 55.2666C263.125 57.9248 261.86 59.3804 259.328 59.6336C258.822 59.7602 258.41 59.8235 258.094 59.8235C257.714 59.8235 257.145 59.7602 256.385 59.6336C256.575 58.9374 256.67 58.3045 256.67 57.7349C256.67 56.9754 256.575 56.2792 256.385 55.6463C256.132 52.9248 254.834 50.8046 252.493 49.2857C250.151 47.7667 247.145 47.0072 243.474 47.0072C240.119 47.0072 237.24 47.7667 234.835 49.2857C232.493 50.8046 231.322 53.2729 231.322 56.6906C231.322 59.0956 231.923 61.2159 233.126 63.0513C234.328 64.8234 235.942 66.4057 237.968 67.798C239.993 69.1904 242.873 70.9309 246.607 73.0195C250.594 75.1713 253.885 77.1966 256.48 79.0953C259.075 80.994 261.163 83.2092 262.746 85.7408C264.328 88.2724 265.119 91.2154 265.119 94.5698C265.119 97.6077 264.36 100.424 262.841 103.019C261.385 105.614 259.012 107.734 255.721 109.38C252.429 110.962 248.189 111.753 242.999 111.753ZM315.975 103.684C316.481 103.937 316.861 104.443 317.114 105.203C317.43 105.899 317.589 106.658 317.589 107.481C317.589 108.367 317.43 109.095 317.114 109.665C316.798 110.234 316.323 110.519 315.69 110.519H285.501C284.171 110.519 283.095 110.139 282.273 109.38C281.513 108.62 281.133 107.576 281.133 106.247L281.039 56.5007C281.039 52.3869 280.627 49.1274 279.804 46.7224C280.69 45.9629 281.577 45.4566 282.463 45.2034C283.412 44.887 284.709 44.7288 286.355 44.7288H315.025C315.468 44.7288 315.817 44.9503 316.07 45.3933C316.323 45.7731 316.449 46.2794 316.449 46.9123C316.449 47.7983 316.228 48.7161 315.785 49.6654C315.405 50.6148 314.899 51.216 314.266 51.4692C305.215 49.8869 296.671 49.0641 288.633 49.0009V73.684H311.987C312.177 74.4435 312.272 75.203 312.272 75.9625C312.272 76.722 312.177 77.4814 311.987 78.2409H288.728V106.342C296.64 106.278 305.722 105.392 315.975 103.684Z" fill="#271504"/>
<path d="M9.92802 11.3863C11.5525 11.6394 12.7866 12.2512 13.6305 13.2217C14.4955 14.171 14.9279 15.4474 14.9279 17.0507C14.9279 19.2026 14.1896 20.7321 12.7128 21.6393C11.236 22.5464 9.02086 23 6.06732 23H3.02939C2.58636 23 2.22771 22.8734 1.95346 22.6203C1.6792 22.3671 1.53152 22.019 1.51042 21.576V4.74078C1.51042 4.23446 1.47878 3.6543 1.41549 3.0003C1.3522 2.32521 1.24672 1.77669 1.09904 1.35476C1.9851 0.890628 3.49352 0.658564 5.62429 0.658564C8.34577 0.658564 10.3921 1.09105 11.7634 1.95601C13.1347 2.79988 13.8204 4.16062 13.8204 6.03823C13.8204 7.34623 13.4828 8.4749 12.8077 9.42425C12.1326 10.3525 11.1727 11.0065 9.92802 11.3863ZM5.49771 1.79779C4.75932 1.79779 4.28464 1.81888 4.07368 1.86108V10.9116H6.73187C8.03986 10.9327 9.0947 10.5318 9.89638 9.70906C10.7191 8.88629 11.1305 7.71542 11.1305 6.19646C11.1305 4.67749 10.6875 3.56991 9.80144 2.87372C8.93647 2.15643 7.5019 1.79779 5.49771 1.79779ZM6.16225 21.8291C8.16644 21.8291 9.66431 21.4599 10.6559 20.7216C11.6685 19.9621 12.1748 18.749 12.1748 17.0824C12.1748 15.2259 11.658 13.9284 10.6242 13.19C9.61157 12.4516 8.12425 12.0824 6.16225 12.0824H4.07368V21.8291H6.16225ZM37.8106 20.7216C37.9793 20.8059 38.1059 20.9747 38.1903 21.2279C38.2958 21.4599 38.3485 21.7131 38.3485 21.9874C38.3485 22.2827 38.2958 22.5253 38.1903 22.7152C38.0848 22.9051 37.9266 23 37.7156 23H27.6525C27.2095 23 26.8508 22.8734 26.5766 22.6203C26.3234 22.3671 26.1968 22.019 26.1968 21.576L26.1652 4.99394C26.1652 3.62266 26.028 2.53617 25.7538 1.7345C26.0491 1.48134 26.3445 1.31256 26.6398 1.22818C26.9563 1.12269 27.3888 1.06995 27.9373 1.06995H37.4941C37.6418 1.06995 37.7578 1.14379 37.8422 1.29147C37.9266 1.41805 37.9688 1.58682 37.9688 1.79779C37.9688 2.09314 37.8949 2.39904 37.7473 2.71549C37.6207 3.03195 37.4519 3.23236 37.2409 3.31675C34.2241 2.78933 31.3761 2.51508 28.6968 2.49398V10.7217H36.4815C36.5448 10.9749 36.5764 11.228 36.5764 11.4812C36.5764 11.7343 36.5448 11.9875 36.4815 12.2407H28.7284V21.6076C31.3655 21.5865 34.3929 21.2912 37.8106 20.7216ZM64.1427 21.2595C64.3748 21.9557 64.628 22.4515 64.9022 22.7468C64.5436 23.1477 64.0478 23.3481 63.4149 23.3481C63.0141 23.3481 62.666 23.2532 62.3706 23.0633C62.0753 22.8945 61.8854 22.6414 61.801 22.3038L59.8707 16.0381H51.5796L49.9974 21.3228C49.8708 21.7869 49.8075 22.135 49.8075 22.3671C49.8075 22.7046 49.8708 22.9473 49.9974 23.0949C49.5544 23.2637 49.0902 23.3481 48.605 23.3481C47.6345 23.3481 47.1493 22.9578 47.1493 22.1772C47.1493 21.903 47.2548 21.4283 47.4658 20.7532L54.1745 1.06995C54.8707 0.795693 55.5669 0.658564 56.2631 0.658564C57.0859 0.658564 57.5922 0.975015 57.7821 1.60792L64.1427 21.2595ZM59.4276 14.5191L55.6935 2.3674L52.0543 14.5191H59.4276ZM81.7626 23.4114C79.1044 23.4114 77.037 22.4304 75.5602 20.4684C74.1045 18.5064 73.3767 15.7005 73.3767 12.0508C73.3767 8.37997 74.1256 5.56355 75.6235 3.60156C77.1213 1.63956 79.2205 0.658564 81.9208 0.658564C83.039 0.658564 84.0727 0.806241 85.0221 1.1016C85.9925 1.37585 86.7625 1.76614 87.3322 2.27246C87.9229 2.75769 88.2182 3.28511 88.2182 3.85472C88.2182 4.25556 88.0284 4.60365 87.6486 4.89901C87.2689 5.19436 86.7731 5.31039 86.1613 5.2471C85.9925 4.15007 85.5389 3.3062 84.8006 2.71549C84.0833 2.12479 83.1339 1.82943 81.9525 1.82943C80.0538 1.82943 78.6192 2.6944 77.6488 4.42433C76.6783 6.13316 76.1931 8.67532 76.1931 12.0508C76.1931 15.4052 76.6783 17.9473 77.6488 19.6773C78.6192 21.3861 80.0327 22.2405 81.8892 22.2405C83.0706 22.2405 84.1044 21.8819 84.9904 21.1646C85.8765 20.4473 86.4461 19.4452 86.6993 18.1583L87.079 18.1267C87.5642 18.1267 87.9756 18.2427 88.3132 18.4748C88.6507 18.6857 88.8195 19.0022 88.8195 19.4241C88.8195 20.1203 88.4819 20.7743 87.8068 21.3861C87.1528 21.9979 86.2773 22.4937 85.1803 22.8734C84.1044 23.2321 82.9651 23.4114 81.7626 23.4114ZM115.17 19.3925C115.17 20.9325 115.308 22.0612 115.582 22.7785C115.139 23.1582 114.643 23.3481 114.095 23.3481C113.673 23.3481 113.324 23.2215 113.05 22.9684C112.776 22.7152 112.639 22.3776 112.639 21.9557L112.607 12.1774H102.291V19.3925C102.291 20.9325 102.428 22.0612 102.702 22.7785C102.259 23.1582 101.763 23.3481 101.215 23.3481C100.793 23.3481 100.445 23.2215 100.171 22.9684C99.8964 22.7152 99.7593 22.3776 99.7593 21.9557L99.7276 4.74078C99.7276 3.28511 99.5905 2.15643 99.3163 1.35476C99.7593 0.975015 100.255 0.785145 100.804 0.785145C101.247 0.785145 101.605 0.911725 101.88 1.16488C102.154 1.39695 102.291 1.7345 102.291 2.17753V10.6584H112.607V4.74078C112.607 3.28511 112.47 2.15643 112.196 1.35476C112.639 0.975015 113.135 0.785145 113.683 0.785145C114.126 0.785145 114.485 0.911725 114.759 1.16488C115.033 1.39695 115.17 1.7345 115.17 2.17753V19.3925Z" fill="#271504"/>
<defs>
<linearGradient id="paint0_linear_23_2" x1="109.921" y1="29.4554" x2="109.921" y2="103.953" gradientUnits="userSpaceOnUse">
<stop stop-color="#F2CF15"/>
<stop offset="1" stop-color="#E06C00"/>
</linearGradient>
</defs>
</svg>
