<svg width="339" height="211" viewBox="0 0 339 211" fill="none" xmlns="http://www.w3.org/2000/svg">
<path d="M23.566 39.5194C26.3844 39.9384 28.6124 41.0238 30.2501 42.7758C31.9259 44.5278 32.7638 46.851 32.7638 49.7456C32.7638 53.5161 31.3546 56.3345 28.5362 58.2007C25.756 60.0669 21.7379 61 16.482 61H10.1407C8.88382 61 7.8555 60.6572 7.05569 59.9717C6.25588 59.2861 5.85598 58.353 5.85598 57.1723V29.2933C5.85598 26.3988 5.49416 23.9994 4.77052 22.0951C7.13186 20.9525 10.5787 20.3812 15.1109 20.3812C20.2525 20.3812 24.1563 21.1429 26.8224 22.6663C29.4884 24.1898 30.8214 26.6273 30.8214 29.9789C30.8214 32.3402 30.1739 34.3778 28.879 36.0917C27.6222 37.7675 25.8512 38.9101 23.566 39.5194ZM13.3399 23.0091V38.5482H16.3106C18.5196 38.5863 20.1573 37.9008 21.2237 36.4916C22.3282 35.0824 22.8805 33.121 22.8805 30.6073C22.8805 28.1698 22.2901 26.3036 21.1095 25.0086C19.9288 23.6756 17.9674 23.0091 15.2252 23.0091H13.3399ZM16.1964 58.3721C19.0909 58.3721 21.2047 57.6103 22.5377 56.0869C23.9088 54.5635 24.5943 52.4878 24.5943 49.8598C24.5943 46.6225 23.8707 44.3754 22.4234 43.1186C21.0142 41.8237 18.9766 41.1762 16.3106 41.1762H13.3399V58.3721H16.1964ZM74.3886 54.3159C74.8457 54.5825 75.1884 55.0586 75.417 55.7441C75.6836 56.4297 75.8169 57.1533 75.8169 57.915C75.8169 58.791 75.6645 59.5337 75.3598 60.1431C75.0551 60.7144 74.5981 61 73.9887 61H55.8217C54.5648 61 53.5365 60.6572 52.7367 59.9717C51.9369 59.2861 51.537 58.353 51.537 57.1723V30.2645C51.537 27.37 51.1752 24.9706 50.4515 23.0662C51.3656 22.3045 52.2797 21.8094 53.1937 21.5809C54.1459 21.3143 55.4979 21.181 57.2499 21.181H73.8173C74.2363 21.181 74.541 21.3714 74.7314 21.7523C74.9218 22.1331 75.0171 22.6283 75.0171 23.2376C75.0171 24.1136 74.8266 25.0086 74.4458 25.9227C74.0649 26.8368 73.5888 27.4271 73.0175 27.6937C68.5234 25.8656 63.8388 24.8944 58.9638 24.7801V38.3197H71.3608C71.5512 39.0053 71.6464 39.6527 71.6464 40.2621C71.6464 40.9858 71.5512 41.6904 71.3608 42.3759H59.0209V57.4009C61.5346 57.3247 64.3149 56.9819 67.3617 56.3725C70.4086 55.7251 72.7509 55.0395 74.3886 54.3159ZM123.163 56.5439C123.62 58.1055 124.229 59.2861 124.991 60.0859C124.001 61.2285 122.535 61.7998 120.592 61.7998C119.412 61.7998 118.402 61.5522 117.564 61.0571C116.765 60.562 116.269 59.8384 116.079 58.8862L113.508 49.2885H100.597L98.7118 56.6582C98.4452 57.6484 98.3119 58.4863 98.3119 59.1719C98.3119 59.9717 98.5214 60.5811 98.9403 61C98.2167 61.2666 97.5502 61.457 96.9408 61.5713C96.3695 61.7236 95.6649 61.7998 94.827 61.7998C93.3798 61.7998 92.3133 61.5522 91.6278 61.0571C90.9803 60.562 90.6566 59.7622 90.6566 58.6577C90.6566 57.7436 90.9042 56.4487 91.3993 54.7729L102.654 21.3524C104.748 20.6668 106.843 20.3241 108.938 20.3241C111.223 20.3241 112.575 21.1429 112.994 22.7806L123.163 56.5439ZM112.423 45.2324L106.938 24.7801L101.625 45.2324H112.423ZM155.444 61.7998C150.378 61.7998 146.436 59.9907 143.618 56.3725C140.838 52.7544 139.448 47.6508 139.448 41.0619C139.448 34.473 140.895 29.3885 143.789 25.8084C146.684 22.1903 150.74 20.3812 155.958 20.3812C158.091 20.3812 160.128 20.6478 162.071 21.181C164.013 21.7142 165.594 22.495 166.812 23.5233C168.069 24.5516 168.698 25.7513 168.698 27.1224C168.698 28.3031 168.164 29.3314 167.098 30.2074C166.032 31.0453 164.565 31.4452 162.699 31.4071C162.128 25.7704 159.919 22.952 156.072 22.952C153.216 22.952 151.102 24.4564 149.731 27.4652C148.36 30.4359 147.674 34.9682 147.674 41.0619C147.674 47.1557 148.341 51.707 149.674 54.7158C151.007 57.6865 153.082 59.1719 155.901 59.1719C157.957 59.1719 159.633 58.4101 160.928 56.8867C162.223 55.3633 163.061 53.0781 163.442 50.0312C163.975 49.955 164.375 49.9169 164.642 49.9169C166.013 49.9169 167.193 50.2597 168.184 50.9453C169.212 51.6308 169.726 52.5639 169.726 53.7446C169.726 55.4204 169.04 56.8677 167.669 58.0864C166.298 59.3052 164.508 60.2383 162.299 60.8857C160.128 61.4951 157.843 61.7998 155.444 61.7998ZM218.298 52.9448C218.298 55.9536 218.66 58.353 219.383 60.1431C218.964 60.562 218.374 60.9429 217.612 61.2856C216.889 61.6284 216.051 61.7998 215.099 61.7998C213.842 61.7998 212.813 61.457 212.014 60.7715C211.214 60.0859 210.814 59.1528 210.814 57.9722V42.2045H195.618V52.9448C195.618 55.9536 195.979 58.353 196.703 60.1431C196.284 60.562 195.694 60.9429 194.932 61.2856C194.208 61.6284 193.37 61.7998 192.418 61.7998C191.161 61.7998 190.133 61.457 189.333 60.7715C188.534 60.0859 188.134 59.1528 188.134 57.9722V29.2933C188.134 26.3988 187.772 23.9994 187.048 22.0951C187.467 21.6761 188.038 21.2952 188.762 20.9525C189.524 20.6097 190.381 20.4383 191.333 20.4383C192.59 20.4383 193.618 20.7811 194.418 21.4666C195.218 22.1522 195.618 23.0853 195.618 24.266V38.2055H210.814V29.2933C210.814 26.3988 210.452 23.9994 209.728 22.0951C210.147 21.6761 210.719 21.2952 211.442 20.9525C212.204 20.6097 213.061 20.4383 214.013 20.4383C215.232 20.4383 216.241 20.7811 217.041 21.4666C217.879 22.1522 218.298 23.0853 218.298 24.266V52.9448Z" fill="#271504"/>
<path d="M53.7952 121.294C53.7952 125.941 54.2718 129.485 55.2249 131.928C53.5569 133.417 51.6505 134.162 49.5059 134.162C47.8378 134.162 46.4676 133.715 45.3953 132.821C44.3825 131.868 43.8761 130.587 43.8761 128.979L43.7868 103.154H17.9615V121.294C17.9615 125.941 18.4381 129.485 19.3913 131.928C17.7232 133.417 15.8169 134.162 13.6722 134.162C12.0041 134.162 10.6339 133.715 9.5616 132.821C8.54885 131.868 8.04247 130.587 8.04247 128.979L7.95311 82.6005C7.95311 78.0729 7.47652 74.5283 6.52334 71.9666C7.11907 71.4304 7.89353 70.9539 8.84671 70.5368C9.85947 70.0602 10.9914 69.8219 12.2424 69.8219C13.9105 69.8219 15.2807 70.2985 16.353 71.2517C17.4253 72.1453 17.9615 73.3964 17.9615 75.0049V97.6131H43.7868V82.6005C43.7868 78.3112 43.3102 74.7666 42.357 71.9666C43.9655 70.5368 45.8421 69.8219 47.9867 69.8219C49.7144 69.8219 51.1144 70.2985 52.1867 71.2517C53.259 72.1453 53.7952 73.3964 53.7952 75.0049V121.294ZM220.514 105.656C220.514 115.128 218.608 122.247 214.795 127.013C210.983 131.779 205.293 134.162 197.727 134.162C190.34 134.162 184.8 131.868 181.106 127.281C177.413 122.634 175.566 115.426 175.566 105.656V82.6005C175.566 78.0729 175.089 74.5283 174.136 71.9666C174.732 71.4304 175.506 70.9539 176.46 70.5368C177.472 70.0602 178.604 69.8219 179.855 69.8219C181.464 69.8219 182.804 70.2985 183.876 71.2517C184.949 72.1453 185.485 73.3964 185.485 75.0049V106.102C185.485 114.621 186.468 120.817 188.434 124.689C190.4 128.502 193.498 130.409 197.727 130.409C206.425 130.409 210.774 122.306 210.774 106.102V82.6005C210.774 78.3112 210.297 74.7666 209.344 71.9666C209.88 71.4304 210.625 70.9539 211.578 70.5368C212.591 70.0602 213.723 69.8219 214.974 69.8219C216.583 69.8219 217.893 70.2985 218.906 71.2517C219.978 72.1453 220.514 73.3964 220.514 75.0049V105.656ZM257.866 134.251C251.016 134.251 245.833 133.06 242.318 130.677C238.862 128.294 237.135 125.196 237.135 121.383C237.135 119.536 237.641 118.077 238.654 117.004C239.667 115.873 241.275 115.307 243.479 115.307C243.837 115.307 244.552 115.366 245.624 115.485C245.445 116.081 245.356 116.766 245.356 117.541C245.356 117.958 245.416 118.702 245.535 119.775C245.892 122.813 247.233 125.345 249.556 127.37C251.879 129.396 255.067 130.409 259.118 130.409C262.454 130.409 265.164 129.575 267.249 127.906C269.334 126.179 270.377 123.706 270.377 120.489C270.377 118.345 269.9 116.498 268.947 114.949C267.994 113.341 266.594 111.881 264.747 110.57C262.96 109.26 260.458 107.681 257.241 105.834C252.952 103.451 249.586 101.366 247.143 99.5791C244.76 97.7323 242.854 95.6472 241.424 93.3238C240.054 91.0004 239.369 88.2303 239.369 85.0133C239.369 79.8304 241.245 75.9878 244.999 73.4857C248.811 70.9241 253.667 69.6432 259.564 69.6432C265.164 69.6432 269.632 70.5964 272.968 72.5028C276.364 74.3496 278.062 76.9708 278.062 80.3665C278.062 83.4644 276.394 85.1026 273.058 85.2814C272.82 85.3409 272.462 85.3707 271.985 85.3707C271.509 85.3707 270.854 85.3111 270.02 85.192C270.079 84.8941 270.109 84.5069 270.109 84.0303C270.109 82.6601 269.9 81.5282 269.483 80.6346C269.126 78.4304 267.994 76.6729 266.088 75.3623C264.181 74.0517 261.649 73.3964 258.492 73.3964C255.811 73.3964 253.488 74.0517 251.522 75.3623C249.616 76.6134 248.662 78.6984 248.662 81.6176C248.662 84.5963 249.675 87.1281 251.701 89.2132C253.786 91.2983 257.449 93.7706 262.692 96.6302C266.326 98.6557 269.334 100.562 271.717 102.349C274.16 104.136 276.156 106.281 277.705 108.783C279.254 111.226 280.028 114.056 280.028 117.273C280.028 120.37 279.224 123.2 277.615 125.762C276.066 128.323 273.624 130.379 270.288 131.928C266.952 133.477 262.811 134.251 257.866 134.251ZM331.906 124.153C332.502 124.511 332.949 125.136 333.246 126.03C333.604 126.923 333.783 127.906 333.783 128.979C333.783 130.111 333.574 131.064 333.157 131.838C332.74 132.613 332.144 133 331.37 133H302.953C301.285 133 299.915 132.553 298.843 131.66C297.83 130.706 297.323 129.426 297.323 127.817L297.234 83.7622C297.234 79.3538 296.757 75.8985 295.804 73.3964C296.936 72.3836 298.098 71.7283 299.289 71.4304C300.54 71.073 302.298 70.8943 304.562 70.8943H331.012C332.085 70.8943 332.621 71.7879 332.621 73.5751C332.621 74.7666 332.353 75.9878 331.817 77.2389C331.34 78.4304 330.715 79.2048 329.94 79.5623C322.374 77.2389 314.779 75.9878 307.153 75.8091V97.8812H327.527C327.766 98.5961 327.885 99.4599 327.885 100.473C327.885 101.188 327.766 102.141 327.527 103.332H307.242V128.085C311.115 128.026 315.404 127.609 320.11 126.834C324.817 126 328.749 125.106 331.906 124.153Z" fill="#271504"/>
<ellipse cx="124.273" cy="106.217" rx="36.3228" ry="36.1634" fill="url(#paint0_linear_48_27)"/>
<path fill-rule="evenodd" clip-rule="evenodd" d="M163.516 111.349C163.315 115.179 162.24 119.968 160.993 122.59C159.944 124.797 157.658 128.304 156.011 130.231C152.544 134.293 146.92 138.264 142.322 139.898C141.453 140.207 140.559 140.698 140.336 140.99C139.967 141.473 140.22 141.503 143.14 141.324C149.566 140.93 154.328 138.845 158.781 134.475C163.616 129.73 166.456 122.41 165.956 115.988C165.793 113.902 164.68 109.496 163.937 107.996C163.816 107.751 163.627 109.26 163.516 111.349Z" fill="#03AFF0"/>
<path fill-rule="evenodd" clip-rule="evenodd" d="M97.915 105.331C101.219 103.669 105.704 102.216 108.442 101.921C110.747 101.673 114.675 101.751 117.001 102.09C121.903 102.803 127.654 105.2 131.002 107.925C131.635 108.44 132.432 108.887 132.773 108.919C133.337 108.971 133.254 108.764 131.849 106.627C128.757 101.922 124.96 99.2869 119.377 97.9701C113.313 96.5404 105.944 97.8492 100.764 101.275C99.0822 102.388 95.8586 105.324 94.9176 106.601C94.764 106.809 96.1129 106.238 97.915 105.331Z" fill="#13EA00"/>
<path fill-rule="evenodd" clip-rule="evenodd" d="M104.321 101.159C104.699 98.9017 105.888 96.1427 107.111 94.6834C108.141 93.455 110.316 91.5512 111.852 90.5347C115.085 88.3933 120.19 86.4725 124.278 85.8591C125.052 85.743 125.856 85.5206 126.065 85.3648C126.412 85.1068 126.193 85.0693 123.642 84.9494C118.027 84.6852 113.772 85.5536 109.665 87.8018C105.206 90.2432 102.346 94.367 102.443 98.2171C102.474 99.4673 103.21 102.169 103.778 103.116C103.87 103.271 104.115 102.39 104.321 101.159Z" fill="#13EA00"/>
<path fill-rule="evenodd" clip-rule="evenodd" d="M99.7555 103.131C102.468 100.616 106.373 97.9746 108.922 96.9312C111.067 96.0529 114.861 95.0363 117.191 94.7156C122.097 94.0396 128.288 94.7449 132.261 96.4322C133.012 96.7512 133.902 96.9597 134.238 96.8953C134.795 96.7884 134.657 96.6128 132.714 94.9499C128.437 91.2894 124.058 89.8124 118.328 90.0984C112.106 90.409 105.391 93.7131 101.366 98.4432C100.059 99.9791 97.7781 103.695 97.2287 105.183C97.1391 105.426 98.2761 104.502 99.7555 103.131Z" fill="#0FBF0B"/>
<path fill-rule="evenodd" clip-rule="evenodd" d="M95.3785 67.9077C97.5496 70.9025 99.7029 75.0965 100.433 77.7518C101.047 79.9868 101.601 83.8759 101.64 86.2269C101.722 91.1791 100.278 97.241 98.1263 100.982C97.7194 101.69 97.4056 102.548 97.4291 102.89C97.4684 103.455 97.6593 103.339 99.5434 101.61C103.691 97.8034 105.683 93.633 106.087 87.9106C106.526 81.6965 104.052 74.6327 99.8388 70.0694C98.4709 68.5877 95.0554 65.8769 93.6444 65.1529C93.414 65.0347 94.1944 66.2744 95.3785 67.9077Z" fill="#0FBF0B"/>
<path fill-rule="evenodd" clip-rule="evenodd" d="M99.7536 105.256C103.816 105.11 108.986 105.884 111.888 107.073C114.331 108.073 118.281 110.382 120.494 112.105C125.158 115.732 129.963 121.875 132.19 127.057C132.612 128.037 133.228 129.028 133.56 129.258C134.11 129.639 134.114 129.342 133.605 125.965C132.486 118.534 129.765 113.206 124.668 108.464C119.133 103.315 111.1 100.74 104.38 101.96C102.198 102.357 97.6715 104.088 96.1705 105.101C95.9255 105.266 97.538 105.336 99.7536 105.256Z" fill="#0FBF0B"/>
<path fill-rule="evenodd" clip-rule="evenodd" d="M71.4196 105.147C73.795 103.378 77.0526 101.524 79.0657 100.794C80.7602 100.179 83.6686 99.4711 85.4037 99.2507C89.0586 98.7862 93.4121 99.3004 96.0008 100.502C96.4905 100.729 97.0985 100.879 97.352 100.834C97.7714 100.76 97.7012 100.636 96.5737 99.4567C94.0923 96.8608 91.1749 95.8065 86.9904 95.9935C82.4464 96.1966 77.0495 98.5121 73.3595 101.841C72.1614 102.923 69.8982 105.541 69.2549 106.59C69.1499 106.761 70.1241 106.112 71.4196 105.147Z" fill="#0FBF0B"/>
<path fill-rule="evenodd" clip-rule="evenodd" d="M72.9603 83.0016C75.9227 82.9456 79.7118 83.7774 81.8541 84.954C83.6573 85.9442 86.5862 88.1962 88.2367 89.8612C91.7137 93.368 95.344 99.2446 97.0734 104.165C97.4007 105.096 97.8704 106.04 98.1174 106.264C98.5264 106.633 98.5234 106.354 98.0843 103.167C97.1182 96.1511 95.0254 91.0831 91.2098 86.5192C87.0663 81.5634 81.1516 78.9794 76.2711 79.9928C74.6864 80.3219 71.4172 81.8605 70.3419 82.7831C70.1663 82.9338 71.3447 83.0321 72.9603 83.0016Z" fill="#13EA00"/>
<path fill-rule="evenodd" clip-rule="evenodd" d="M78.3736 69.4769C82.174 71.57 86.5213 75.0236 88.5773 77.5832C90.308 79.7374 92.753 83.7897 93.9057 86.4135C96.3341 91.9402 97.6097 99.6143 97.0107 105.093C96.8976 106.129 96.958 107.28 97.1451 107.651C97.4552 108.264 97.6105 108.022 98.8648 104.965C101.626 98.2382 101.847 92.3704 99.589 85.6905C97.1369 78.4367 91.0822 71.9411 84.297 69.2843C82.0938 68.4217 77.0595 67.381 75.1667 67.3966C74.8576 67.3992 76.3009 68.3354 78.3736 69.4769Z" fill="#0FBF0B"/>
<path fill-rule="evenodd" clip-rule="evenodd" d="M75.8051 136.604C73.297 136.863 70.4263 137.61 70.4263 138.003C70.4263 138.154 70.7564 138.188 71.1599 138.079C71.5635 137.971 73.905 138.042 76.3629 138.238C80.4228 138.561 81.2493 138.742 85.3879 140.215C90.3908 141.995 92.5543 142.974 101.47 147.497C112.957 153.324 118.979 155.624 126.212 156.946C130.214 157.677 131.411 157.765 135.279 157.61C138.234 157.492 140.513 157.214 142.041 156.786L144.346 156.139L140.504 156.105C131.037 156.019 125.009 153.898 101.456 142.367C100.181 141.743 99.0365 141.232 98.9136 141.232C98.7906 141.232 97.481 140.725 96.0035 140.106C91.5118 138.223 82.3531 136.186 79.0403 136.334C78.4444 136.361 76.9884 136.482 75.8051 136.604Z" fill="#273A8E"/>
<path fill-rule="evenodd" clip-rule="evenodd" d="M82.8883 128.996C83.4368 129.925 84.5484 130.857 84.9712 130.743C85.133 130.699 85.1338 130.557 84.9737 130.427C84.8133 130.297 84.6368 129.34 84.5816 128.299C84.4904 126.581 84.5955 126.198 85.7293 124.115C87.1004 121.597 87.9186 120.447 91.8114 115.568C96.827 109.283 98.6459 106.206 99.2837 102.928C99.6367 101.115 99.7055 101.477 99.6821 100.01C99.6704 99.2762 99.4881 98.1729 99.1903 97.0676L98.5755 95.8347L98.3993 97.0542L97.8952 99.7352C97.1524 103.879 96.1419 104.293 86.3052 117.06C85.7724 117.752 85.3476 118.358 85.3608 118.407C85.3741 118.456 84.9714 119.127 84.4657 119.898C82.9293 122.241 81.732 126.497 82.2488 127.779C82.3415 128.01 82.6294 128.558 82.8883 128.996Z" fill="#5A2D02"/>
<path fill-rule="evenodd" clip-rule="evenodd" d="M172.262 121.451C172.193 121.681 171.895 122.995 171.6 124.371C169.262 135.263 158.69 144.417 147.28 145.429C143.856 145.733 138.535 145.416 136.021 144.76C129.977 143.181 121.024 139.661 114.479 136.289C108.49 133.204 99.2349 129.426 94.2868 128.048C89.4897 126.711 80.3338 126.551 76.1239 127.729C69.754 129.511 63.3947 133.065 59.3784 137.087L58 138.467L59.6847 137.434C66.5478 133.227 71.174 131.78 78.6758 131.495C87.1755 131.172 92.5944 132.697 104.099 138.648C110.835 142.133 113.52 143.537 114.82 144.256C115.578 144.675 116.543 145.127 116.964 145.26C117.385 145.394 118.637 145.931 119.745 146.455C123.049 148.016 129.437 150.114 133.199 150.873C138.243 151.891 145.659 151.866 149.737 150.817C160.521 148.043 169.046 139.547 171.586 129.043C172.363 125.831 172.964 121.033 172.589 121.033C172.478 121.033 172.331 121.221 172.262 121.451Z" fill="#0B75BF"/>
<path d="M11.6552 170.099C14.8637 170.099 17.2539 170.637 18.8258 171.714C20.4193 172.769 21.216 174.449 21.216 176.753C21.216 179.165 20.3655 181.006 18.6643 182.276C16.9632 183.547 14.5084 184.182 11.2999 184.182H10.4924V188.962C10.4924 190.534 10.6646 191.751 11.0092 192.612C10.4062 193.151 9.72792 193.42 8.97424 193.42C8.34977 193.42 7.84373 193.258 7.45613 192.935C7.09006 192.591 6.90702 192.128 6.90702 191.546V174.783C6.90702 174.201 6.86396 173.555 6.77782 172.845C6.69169 172.112 6.55172 171.477 6.35792 170.939C7.54226 170.379 9.30801 170.099 11.6552 170.099ZM11.2353 182.858C15.2836 182.858 17.3077 180.898 17.3077 176.979C17.3077 175.192 16.8555 173.824 15.9511 172.877C15.0682 171.929 13.6362 171.456 11.6552 171.456C11.2245 171.456 10.8369 171.477 10.4924 171.52V182.858H11.2353ZM31.4631 193.42C29.0298 193.42 27.1348 192.655 25.7782 191.127C24.4431 189.598 23.7756 187.466 23.7756 184.731C23.7756 181.975 24.4539 179.832 25.8105 178.303C27.1671 176.774 29.0513 176.01 31.4631 176.01C33.8963 176.01 35.7913 176.774 37.1479 178.303C38.5045 179.832 39.1828 181.975 39.1828 184.731C39.1828 187.466 38.5045 189.598 37.1479 191.127C35.7913 192.655 33.8963 193.42 31.4631 193.42ZM31.4631 192.096C32.7551 192.096 33.7241 191.471 34.3701 190.222C35.0376 188.973 35.3714 187.143 35.3714 184.731C35.3714 182.298 35.0376 180.457 34.3701 179.208C33.7241 177.959 32.7551 177.334 31.4631 177.334C30.171 177.334 29.1913 177.959 28.5237 179.208C27.8777 180.457 27.5547 182.298 27.5547 184.731C27.5547 187.143 27.8777 188.973 28.5237 190.222C29.1913 191.471 30.171 192.096 31.4631 192.096ZM58.0038 190.287C58.2622 190.653 58.3914 191.051 58.3914 191.482C58.3914 192.063 58.1868 192.526 57.7777 192.871C57.3901 193.215 56.8302 193.388 56.0981 193.388C55.1506 193.388 54.4185 193.075 53.9017 192.451C53.4064 191.826 53.1587 190.89 53.1587 189.641V189.576C52.7065 190.825 52.0282 191.783 51.1238 192.451C50.241 193.118 49.1427 193.452 47.8292 193.452C46.0635 193.452 44.7714 192.946 43.9532 191.934C43.1564 190.922 42.7581 189.221 42.7581 186.831L42.7258 180.661C42.7258 179.003 42.5535 177.711 42.209 176.785C42.8119 176.268 43.4902 176.01 44.2439 176.01C44.8468 176.01 45.3313 176.182 45.6974 176.527C46.085 176.85 46.2788 177.302 46.2788 177.883V186.314C46.2788 188.252 46.4726 189.641 46.8602 190.481C47.2478 191.299 47.9476 191.708 48.9597 191.708C49.6488 191.708 50.284 191.439 50.8654 190.9C51.4468 190.341 51.9098 189.49 52.2543 188.349C52.6204 187.207 52.8034 185.797 52.8034 184.117C52.8034 181.576 52.7711 179.897 52.7065 179.079C52.6419 178.239 52.4697 177.464 52.1897 176.753C52.8142 176.258 53.4925 176.01 54.2247 176.01C54.8061 176.01 55.2906 176.193 55.6782 176.559C56.0658 176.925 56.2596 177.421 56.2596 178.045L56.2919 189.059C56.2919 189.662 56.3565 190.093 56.4857 190.351C56.6364 190.588 56.8625 190.707 57.164 190.707C57.5516 190.707 57.8315 190.567 58.0038 190.287ZM66.2144 193.42C64.1902 193.42 62.6613 193.075 61.6277 192.386C60.5941 191.697 60.0773 190.771 60.0773 189.608C60.0773 189.027 60.2388 188.532 60.5618 188.123C60.9064 187.714 61.4339 187.509 62.1445 187.509C62.2737 187.509 62.4891 187.53 62.7905 187.574C62.7259 187.832 62.6936 188.069 62.6936 188.284C62.6936 188.543 62.7259 188.822 62.7905 189.124C62.8982 189.985 63.275 190.685 63.921 191.223C64.5886 191.762 65.493 192.031 66.6343 192.031C67.6463 192.031 68.4646 191.848 69.0891 191.482C69.7136 191.094 70.0258 190.534 70.0258 189.802C70.0258 189.307 69.8751 188.876 69.5736 188.51C69.2937 188.123 68.9384 187.8 68.5077 187.541C68.077 187.283 67.4633 186.96 66.6666 186.572C66.4943 186.508 66.2359 186.389 65.8914 186.217C64.7286 185.679 63.8026 185.205 63.1135 184.796C62.446 184.365 61.8646 183.794 61.3693 183.084C60.8956 182.373 60.6587 181.501 60.6587 180.467C60.6587 178.96 61.2401 177.84 62.4029 177.108C63.5657 176.355 65.0408 175.978 66.8281 175.978C68.6154 175.978 70.0258 176.258 71.0594 176.818C72.093 177.356 72.6098 178.142 72.6098 179.175C72.6098 179.649 72.4699 180.058 72.1899 180.403C71.9315 180.726 71.5116 180.898 70.9302 180.92C70.8225 180.941 70.6826 180.952 70.5103 180.952C70.4026 180.952 70.1981 180.93 69.8966 180.887C69.9181 180.758 69.9289 180.564 69.9289 180.306C69.9289 179.832 69.8643 179.477 69.7351 179.24C69.6059 178.637 69.2721 178.174 68.7338 177.851C68.217 177.507 67.5387 177.334 66.6989 177.334C65.9021 177.334 65.2238 177.496 64.664 177.819C64.1256 178.142 63.8564 178.637 63.8564 179.305C63.8564 179.908 64.0287 180.424 64.3733 180.855C64.7393 181.286 65.1808 181.652 65.6976 181.953C66.2144 182.255 66.9465 182.632 67.894 183.084C69.2075 183.708 70.1873 184.214 70.8333 184.602C71.4793 184.968 72.0607 185.474 72.5775 186.12C73.0943 186.766 73.3527 187.552 73.3527 188.478C73.3527 189.856 72.7713 191.03 71.6085 191.999C70.4672 192.946 68.6692 193.42 66.2144 193.42ZM91.6882 190.125C91.9466 190.47 92.0758 190.868 92.0758 191.32C92.0758 191.88 91.8281 192.354 91.3329 192.742C90.8376 193.129 90.2024 193.323 89.4272 193.323C88.372 193.323 87.5753 192.968 87.0369 192.257C86.4986 191.525 86.2187 190.351 86.1971 188.736C85.5511 190.136 84.6682 191.256 83.5485 192.096C82.4288 192.935 81.1475 193.355 79.7048 193.355C78.4558 193.355 77.4438 193.022 76.6685 192.354C75.9149 191.665 75.538 190.739 75.538 189.576C75.538 188.22 76.0548 187.1 77.0885 186.217C78.1221 185.334 79.4464 184.667 81.0614 184.214C82.6764 183.762 84.3237 183.558 86.0033 183.601V182.793C86.0033 180.92 85.7449 179.542 85.2281 178.659C84.7113 177.776 83.85 177.334 82.6441 177.334C81.8258 177.334 81.1583 177.528 80.6415 177.916C80.1462 178.303 79.8986 178.939 79.8986 179.821C79.8986 180.317 79.9955 180.78 80.1893 181.21C80.3831 181.641 80.7061 181.964 81.1583 182.179C80.943 182.416 80.6522 182.599 80.2862 182.729C79.9416 182.836 79.5756 182.89 79.188 182.89C78.3266 182.89 77.6268 182.61 77.0885 182.05C76.5716 181.469 76.3132 180.769 76.3132 179.951C76.3132 178.68 76.8947 177.711 78.0575 177.044C79.2203 176.355 80.8245 176.01 82.8702 176.01C85.1958 176.01 86.897 176.57 87.9736 177.69C89.0719 178.788 89.621 180.554 89.621 182.987V188.93C89.621 190.071 89.987 190.642 90.7192 190.642C90.8914 190.642 91.0637 190.599 91.236 190.513C91.4298 190.427 91.5805 190.298 91.6882 190.125ZM81.3198 190.997C82.0304 190.997 82.7518 190.717 83.4839 190.158C84.2376 189.576 84.8621 188.812 85.3573 187.864C85.8526 186.917 86.1002 185.905 86.1002 184.828C85.3466 184.785 84.5821 184.828 83.8069 184.957C83.0317 185.065 82.3642 185.248 81.8043 185.506C81.0506 185.829 80.4584 186.271 80.0278 186.831C79.6186 187.369 79.4141 188.004 79.4141 188.736C79.4141 189.382 79.5648 189.921 79.8663 190.351C80.1893 190.782 80.6738 190.997 81.3198 190.997ZM109.957 190.19C110.215 190.577 110.345 190.987 110.345 191.417C110.345 191.956 110.108 192.397 109.634 192.742C109.182 193.086 108.6 193.258 107.89 193.258C105.995 193.258 104.961 191.869 104.789 189.092C103.755 191.977 101.903 193.42 99.2333 193.42C97.2307 193.42 95.788 192.677 94.9051 191.191C94.0222 189.684 93.5808 187.757 93.5808 185.409C93.5808 182.416 94.1729 180.101 95.3573 178.465C96.5416 176.828 98.232 176.01 100.428 176.01C101.462 176.01 102.334 176.204 103.045 176.591C103.755 176.979 104.272 177.528 104.595 178.239V175.461C104.595 173.286 104.391 171.52 103.981 170.164C104.584 169.625 105.263 169.356 106.016 169.356C106.619 169.356 107.115 169.528 107.502 169.873C107.89 170.218 108.084 170.67 108.084 171.23L108.051 188.93C108.051 190.05 108.407 190.61 109.117 190.61C109.526 190.61 109.806 190.47 109.957 190.19ZM100.235 191.45C101.591 191.45 102.646 190.61 103.4 188.93C104.154 187.251 104.531 185.226 104.531 182.858C104.531 181.372 104.294 180.177 103.82 179.272C103.346 178.346 102.474 177.883 101.204 177.883C98.6411 177.883 97.3599 180.36 97.3599 185.313C97.3599 187.294 97.5645 188.812 97.9736 189.867C98.3827 190.922 99.1364 191.45 100.235 191.45ZM128.436 190.125C128.694 190.47 128.824 190.868 128.824 191.32C128.824 191.88 128.576 192.354 128.081 192.742C127.585 193.129 126.95 193.323 126.175 193.323C125.12 193.323 124.323 192.968 123.785 192.257C123.246 191.525 122.967 190.351 122.945 188.736C122.299 190.136 121.416 191.256 120.296 192.096C119.177 192.935 117.895 193.355 116.453 193.355C115.204 193.355 114.192 193.022 113.416 192.354C112.663 191.665 112.286 190.739 112.286 189.576C112.286 188.22 112.803 187.1 113.836 186.217C114.87 185.334 116.194 184.667 117.809 184.214C119.424 183.762 121.072 183.558 122.751 183.601V182.793C122.751 180.92 122.493 179.542 121.976 178.659C121.459 177.776 120.598 177.334 119.392 177.334C118.574 177.334 117.906 177.528 117.389 177.916C116.894 178.303 116.646 178.939 116.646 179.821C116.646 180.317 116.743 180.78 116.937 181.21C117.131 181.641 117.454 181.964 117.906 182.179C117.691 182.416 117.4 182.599 117.034 182.729C116.69 182.836 116.323 182.89 115.936 182.89C115.075 182.89 114.375 182.61 113.836 182.05C113.32 181.469 113.061 180.769 113.061 179.951C113.061 178.68 113.643 177.711 114.805 177.044C115.968 176.355 117.572 176.01 119.618 176.01C121.944 176.01 123.645 176.57 124.722 177.69C125.82 178.788 126.369 180.554 126.369 182.987V188.93C126.369 190.071 126.735 190.642 127.467 190.642C127.639 190.642 127.812 190.599 127.984 190.513C128.178 190.427 128.328 190.298 128.436 190.125ZM118.068 190.997C118.778 190.997 119.5 190.717 120.232 190.158C120.985 189.576 121.61 188.812 122.105 187.864C122.6 186.917 122.848 185.905 122.848 184.828C122.094 184.785 121.33 184.828 120.555 184.957C119.78 185.065 119.112 185.248 118.552 185.506C117.798 185.829 117.206 186.271 116.776 186.831C116.367 187.369 116.162 188.004 116.162 188.736C116.162 189.382 116.313 189.921 116.614 190.351C116.937 190.782 117.422 190.997 118.068 190.997ZM150.866 188.543C151.21 188.693 151.383 188.962 151.383 189.35C151.383 189.608 151.307 189.921 151.157 190.287C150.747 191.299 150.015 192.074 148.96 192.612C147.926 193.151 146.678 193.42 145.213 193.42C142.758 193.42 140.82 192.666 139.399 191.159C138 189.652 137.3 187.509 137.3 184.731C137.3 181.996 137.989 179.865 139.367 178.336C140.745 176.785 142.715 176.01 145.278 176.01C147.151 176.01 148.669 176.43 149.832 177.27C150.995 178.088 151.576 179.262 151.576 180.79C151.576 182.384 150.93 183.611 149.638 184.473C148.368 185.313 146.634 185.732 144.438 185.732C143.189 185.732 142.08 185.679 141.111 185.571C141.262 187.574 141.768 189.006 142.629 189.867C143.491 190.728 144.664 191.159 146.15 191.159C147.313 191.159 148.303 190.922 149.122 190.448C149.961 189.975 150.543 189.339 150.866 188.543ZM145.149 177.334C143.878 177.334 142.877 177.937 142.145 179.143C141.434 180.328 141.079 182.018 141.079 184.214C141.639 184.279 142.209 184.311 142.791 184.311C144.255 184.311 145.45 184.021 146.376 183.439C147.302 182.858 147.765 181.792 147.765 180.241C147.765 179.186 147.517 178.443 147.022 178.013C146.527 177.56 145.902 177.334 145.149 177.334ZM178.947 190.287C179.119 190.653 179.205 190.997 179.205 191.32C179.205 191.988 178.947 192.505 178.43 192.871C177.935 193.215 177.418 193.388 176.88 193.388C176.148 193.388 175.545 193.237 175.071 192.935C174.619 192.612 174.231 192.182 173.908 191.643C173.585 191.084 173.23 190.308 172.842 189.318L171.647 186.217C171.367 185.506 171.098 184.946 170.839 184.537C170.603 184.128 170.247 183.784 169.774 183.504C169.321 183.224 168.708 183.084 167.932 183.084L166.253 183.052V188.962C166.253 190.534 166.425 191.751 166.77 192.612C166.167 193.151 165.488 193.42 164.735 193.42C164.11 193.42 163.604 193.258 163.217 192.935C162.851 192.591 162.668 192.128 162.668 191.546V174.783C162.668 174.201 162.624 173.555 162.538 172.845C162.452 172.112 162.312 171.477 162.118 170.939C163.303 170.379 165.122 170.099 167.577 170.099C170.7 170.099 173.025 170.573 174.554 171.52C176.104 172.446 176.88 173.964 176.88 176.075C176.88 177.647 176.427 178.971 175.523 180.048C174.619 181.124 173.38 181.867 171.809 182.276C172.562 182.47 173.176 182.815 173.65 183.31C174.123 183.784 174.565 184.419 174.974 185.216L176.427 188.607C176.707 189.318 176.977 189.835 177.235 190.158C177.515 190.459 177.806 190.621 178.107 190.642C178.452 190.642 178.732 190.524 178.947 190.287ZM166.253 181.695C166.619 181.716 167.233 181.727 168.094 181.727C169.601 181.684 170.786 181.167 171.647 180.177C172.53 179.186 172.971 177.905 172.971 176.333C172.971 173.081 171.259 171.456 167.836 171.456C167.039 171.456 166.511 171.466 166.253 171.488V181.695ZM194.459 188.543C194.803 188.693 194.975 188.962 194.975 189.35C194.975 189.608 194.9 189.921 194.749 190.287C194.34 191.299 193.608 192.074 192.553 192.612C191.519 193.151 190.27 193.42 188.806 193.42C186.351 193.42 184.413 192.666 182.992 191.159C181.592 189.652 180.892 187.509 180.892 184.731C180.892 181.996 181.582 179.865 182.96 178.336C184.338 176.785 186.308 176.01 188.871 176.01C190.744 176.01 192.262 176.43 193.425 177.27C194.588 178.088 195.169 179.262 195.169 180.79C195.169 182.384 194.523 183.611 193.231 184.473C191.961 185.313 190.227 185.732 188.031 185.732C186.782 185.732 185.673 185.679 184.704 185.571C184.855 187.574 185.361 189.006 186.222 189.867C187.083 190.728 188.257 191.159 189.743 191.159C190.906 191.159 191.896 190.922 192.714 190.448C193.554 189.975 194.136 189.339 194.459 188.543ZM188.741 177.334C187.471 177.334 186.47 177.937 185.737 179.143C185.027 180.328 184.672 182.018 184.672 184.214C185.231 184.279 185.802 184.311 186.383 184.311C187.848 184.311 189.043 184.021 189.969 183.439C190.895 182.858 191.358 181.792 191.358 180.241C191.358 179.186 191.11 178.443 190.615 178.013C190.12 177.56 189.495 177.334 188.741 177.334ZM203.585 193.42C201.561 193.42 200.032 193.075 198.999 192.386C197.965 191.697 197.448 190.771 197.448 189.608C197.448 189.027 197.61 188.532 197.933 188.123C198.277 187.714 198.805 187.509 199.515 187.509C199.645 187.509 199.86 187.53 200.161 187.574C200.097 187.832 200.064 188.069 200.064 188.284C200.064 188.543 200.097 188.822 200.161 189.124C200.269 189.985 200.646 190.685 201.292 191.223C201.959 191.762 202.864 192.031 204.005 192.031C205.017 192.031 205.835 191.848 206.46 191.482C207.084 191.094 207.397 190.534 207.397 189.802C207.397 189.307 207.246 188.876 206.944 188.51C206.664 188.123 206.309 187.8 205.878 187.541C205.448 187.283 204.834 186.96 204.037 186.572C203.865 186.508 203.607 186.389 203.262 186.217C202.099 185.679 201.173 185.205 200.484 184.796C199.817 184.365 199.235 183.794 198.74 183.084C198.266 182.373 198.03 181.501 198.03 180.467C198.03 178.96 198.611 177.84 199.774 177.108C200.937 176.355 202.412 175.978 204.199 175.978C205.986 175.978 207.397 176.258 208.43 176.818C209.464 177.356 209.981 178.142 209.981 179.175C209.981 179.649 209.841 180.058 209.561 180.403C209.302 180.726 208.882 180.898 208.301 180.92C208.193 180.941 208.053 180.952 207.881 180.952C207.773 180.952 207.569 180.93 207.267 180.887C207.289 180.758 207.3 180.564 207.3 180.306C207.3 179.832 207.235 179.477 207.106 179.24C206.977 178.637 206.643 178.174 206.105 177.851C205.588 177.507 204.909 177.334 204.07 177.334C203.273 177.334 202.595 177.496 202.035 177.819C201.496 178.142 201.227 178.637 201.227 179.305C201.227 179.908 201.4 180.424 201.744 180.855C202.11 181.286 202.552 181.652 203.068 181.953C203.585 182.255 204.317 182.632 205.265 183.084C206.578 183.708 207.558 184.214 208.204 184.602C208.85 184.968 209.432 185.474 209.948 186.12C210.465 186.766 210.724 187.552 210.724 188.478C210.724 189.856 210.142 191.03 208.979 191.999C207.838 192.946 206.04 193.42 203.585 193.42ZM218.594 176.462C219.003 176.462 219.563 176.451 220.273 176.43C220.984 176.408 221.544 176.387 221.953 176.365L221.921 177.237C221.899 177.517 221.802 177.744 221.63 177.916C221.479 178.067 221.275 178.142 221.016 178.142H217.98V179.208L217.948 188.93C217.948 190.093 218.454 190.674 219.466 190.674C219.767 190.674 220.047 190.631 220.306 190.545C220.586 190.438 220.769 190.298 220.855 190.125C221.135 190.534 221.275 190.933 221.275 191.32C221.275 191.923 220.973 192.419 220.37 192.806C219.789 193.172 219.035 193.355 218.109 193.355C216.946 193.355 216.042 192.989 215.396 192.257C214.75 191.525 214.427 190.513 214.427 189.221V178.142H213.975C213.695 178.142 213.372 178.153 213.006 178.174C212.64 178.196 212.317 178.228 212.037 178.271L212.069 177.334C212.091 177.054 212.187 176.839 212.36 176.688C212.532 176.538 212.747 176.462 213.006 176.462H214.427V174.007C214.427 173.448 214.621 173.006 215.008 172.683C215.396 172.339 215.891 172.166 216.494 172.166C217.248 172.166 217.915 172.425 218.497 172.942C218.238 173.889 218.077 175.063 218.012 176.462H218.594ZM240.257 190.125C240.515 190.47 240.644 190.868 240.644 191.32C240.644 191.88 240.397 192.354 239.902 192.742C239.406 193.129 238.771 193.323 237.996 193.323C236.941 193.323 236.144 192.968 235.606 192.257C235.067 191.525 234.787 190.351 234.766 188.736C234.12 190.136 233.237 191.256 232.117 192.096C230.997 192.935 229.716 193.355 228.273 193.355C227.024 193.355 226.012 193.022 225.237 192.354C224.484 191.665 224.107 190.739 224.107 189.576C224.107 188.22 224.623 187.1 225.657 186.217C226.691 185.334 228.015 184.667 229.63 184.214C231.245 183.762 232.892 183.558 234.572 183.601V182.793C234.572 180.92 234.314 179.542 233.797 178.659C233.28 177.776 232.419 177.334 231.213 177.334C230.394 177.334 229.727 177.528 229.21 177.916C228.715 178.303 228.467 178.939 228.467 179.821C228.467 180.317 228.564 180.78 228.758 181.21C228.952 181.641 229.275 181.964 229.727 182.179C229.512 182.416 229.221 182.599 228.855 182.729C228.51 182.836 228.144 182.89 227.757 182.89C226.895 182.89 226.195 182.61 225.657 182.05C225.14 181.469 224.882 180.769 224.882 179.951C224.882 178.68 225.463 177.711 226.626 177.044C227.789 176.355 229.393 176.01 231.439 176.01C233.764 176.01 235.466 176.57 236.542 177.69C237.64 178.788 238.19 180.554 238.19 182.987V188.93C238.19 190.071 238.556 190.642 239.288 190.642C239.46 190.642 239.632 190.599 239.805 190.513C239.998 190.427 240.149 190.298 240.257 190.125ZM229.888 190.997C230.599 190.997 231.32 190.717 232.053 190.158C232.806 189.576 233.431 188.812 233.926 187.864C234.421 186.917 234.669 185.905 234.669 184.828C233.915 184.785 233.151 184.828 232.376 184.957C231.6 185.065 230.933 185.248 230.373 185.506C229.619 185.829 229.027 186.271 228.596 186.831C228.187 187.369 227.983 188.004 227.983 188.736C227.983 189.382 228.133 189.921 228.435 190.351C228.758 190.782 229.242 190.997 229.888 190.997ZM258.461 190.287C258.719 190.653 258.849 191.051 258.849 191.482C258.849 192.063 258.644 192.526 258.235 192.871C257.847 193.215 257.287 193.388 256.555 193.388C255.608 193.388 254.876 193.075 254.359 192.451C253.864 191.826 253.616 190.89 253.616 189.641V189.576C253.164 190.825 252.486 191.783 251.581 192.451C250.698 193.118 249.6 193.452 248.286 193.452C246.521 193.452 245.229 192.946 244.41 191.934C243.614 190.922 243.215 189.221 243.215 186.831L243.183 180.661C243.183 179.003 243.011 177.711 242.666 176.785C243.269 176.268 243.947 176.01 244.701 176.01C245.304 176.01 245.789 176.182 246.155 176.527C246.542 176.85 246.736 177.302 246.736 177.883V186.314C246.736 188.252 246.93 189.641 247.317 190.481C247.705 191.299 248.405 191.708 249.417 191.708C250.106 191.708 250.741 191.439 251.323 190.9C251.904 190.341 252.367 189.49 252.712 188.349C253.078 187.207 253.261 185.797 253.261 184.117C253.261 181.576 253.228 179.897 253.164 179.079C253.099 178.239 252.927 177.464 252.647 176.753C253.271 176.258 253.95 176.01 254.682 176.01C255.263 176.01 255.748 176.193 256.135 176.559C256.523 176.925 256.717 177.421 256.717 178.045L256.749 189.059C256.749 189.662 256.814 190.093 256.943 190.351C257.094 190.588 257.32 190.707 257.621 190.707C258.009 190.707 258.289 190.567 258.461 190.287ZM269.611 176.01C270.795 176.01 271.754 176.322 272.486 176.947C273.218 177.571 273.584 178.433 273.584 179.531C273.584 180.349 273.347 181.006 272.873 181.501C272.4 181.996 271.807 182.244 271.097 182.244C270.429 182.244 269.945 182.072 269.643 181.727C269.88 181.34 270.042 180.995 270.128 180.694C270.214 180.371 270.257 180.005 270.257 179.595C270.257 178.368 269.719 177.754 268.642 177.754C267.781 177.754 267.081 178.39 266.542 179.66C266.026 180.909 265.767 182.793 265.767 185.313V186.54C265.767 188.456 265.8 189.781 265.864 190.513C265.929 191.223 266.09 191.902 266.349 192.548C266.133 192.742 265.853 192.914 265.509 193.065C265.164 193.215 264.766 193.301 264.314 193.323C263.732 193.323 263.237 193.14 262.828 192.774C262.44 192.408 262.246 191.913 262.246 191.288V180.371C262.246 179.789 262.171 179.369 262.02 179.111C261.891 178.831 261.676 178.691 261.374 178.691C260.965 178.691 260.685 178.842 260.535 179.143C260.255 178.734 260.115 178.325 260.115 177.916C260.115 177.356 260.319 176.904 260.728 176.559C261.138 176.193 261.708 176.01 262.44 176.01C263.323 176.01 264.023 176.312 264.54 176.914C265.057 177.517 265.326 178.411 265.347 179.595C266.101 177.205 267.522 176.01 269.611 176.01ZM291.641 190.125C291.899 190.47 292.028 190.868 292.028 191.32C292.028 191.88 291.781 192.354 291.285 192.742C290.79 193.129 290.155 193.323 289.38 193.323C288.325 193.323 287.528 192.968 286.99 192.257C286.451 191.525 286.171 190.351 286.15 188.736C285.504 190.136 284.621 191.256 283.501 192.096C282.381 192.935 281.1 193.355 279.657 193.355C278.408 193.355 277.396 193.022 276.621 192.354C275.867 191.665 275.491 190.739 275.491 189.576C275.491 188.22 276.007 187.1 277.041 186.217C278.075 185.334 279.399 184.667 281.014 184.214C282.629 183.762 284.276 183.558 285.956 183.601V182.793C285.956 180.92 285.697 179.542 285.181 178.659C284.664 177.776 283.803 177.334 282.597 177.334C281.778 177.334 281.111 177.528 280.594 177.916C280.099 178.303 279.851 178.939 279.851 179.821C279.851 180.317 279.948 180.78 280.142 181.21C280.336 181.641 280.659 181.964 281.111 182.179C280.896 182.416 280.605 182.599 280.239 182.729C279.894 182.836 279.528 182.89 279.141 182.89C278.279 182.89 277.579 182.61 277.041 182.05C276.524 181.469 276.266 180.769 276.266 179.951C276.266 178.68 276.847 177.711 278.01 177.044C279.173 176.355 280.777 176.01 282.823 176.01C285.148 176.01 286.85 176.57 287.926 177.69C289.024 178.788 289.574 180.554 289.574 182.987V188.93C289.574 190.071 289.94 190.642 290.672 190.642C290.844 190.642 291.016 190.599 291.189 190.513C291.382 190.427 291.533 190.298 291.641 190.125ZM281.272 190.997C281.983 190.997 282.704 190.717 283.436 190.158C284.19 189.576 284.815 188.812 285.31 187.864C285.805 186.917 286.053 185.905 286.053 184.828C285.299 184.785 284.535 184.828 283.759 184.957C282.984 185.065 282.317 185.248 281.757 185.506C281.003 185.829 280.411 186.271 279.98 186.831C279.571 187.369 279.367 188.004 279.367 188.736C279.367 189.382 279.517 189.921 279.819 190.351C280.142 190.782 280.626 190.997 281.272 190.997ZM308.811 188.769C308.854 190.534 309.048 191.816 309.393 192.612C308.811 193.151 308.133 193.42 307.358 193.42C306.755 193.42 306.26 193.258 305.872 192.935C305.484 192.591 305.291 192.128 305.291 191.546V183.116C305.269 181.329 305.054 180.015 304.645 179.175C304.257 178.314 303.536 177.883 302.481 177.883C301.77 177.883 301.113 178.153 300.51 178.691C299.929 179.229 299.455 180.058 299.089 181.178C298.723 182.276 298.54 183.654 298.54 185.313C298.54 187.853 298.572 189.533 298.637 190.351C298.701 191.17 298.874 191.934 299.154 192.645C298.938 192.838 298.648 193.011 298.281 193.162C297.937 193.334 297.56 193.42 297.151 193.42C296.526 193.42 296.02 193.237 295.633 192.871C295.245 192.505 295.051 192.009 295.051 191.385V180.371C295.03 179.768 294.955 179.337 294.825 179.079C294.696 178.82 294.481 178.691 294.179 178.691C293.77 178.691 293.49 178.842 293.34 179.143C293.06 178.734 292.92 178.325 292.92 177.916C292.92 177.356 293.124 176.904 293.533 176.559C293.942 176.193 294.513 176.01 295.245 176.01C296.171 176.01 296.882 176.333 297.377 176.979C297.894 177.604 298.152 178.54 298.152 179.789V179.951C298.583 178.68 299.261 177.711 300.187 177.044C301.135 176.355 302.276 176.01 303.611 176.01C305.377 176.01 306.68 176.559 307.519 177.657C308.381 178.756 308.811 180.403 308.811 182.599V188.769ZM317.986 176.462C318.396 176.462 318.955 176.451 319.666 176.43C320.377 176.408 320.937 176.387 321.346 176.365L321.313 177.237C321.292 177.517 321.195 177.744 321.023 177.916C320.872 178.067 320.667 178.142 320.409 178.142H317.373V179.208L317.34 188.93C317.34 190.093 317.846 190.674 318.859 190.674C319.16 190.674 319.44 190.631 319.698 190.545C319.978 190.438 320.161 190.298 320.247 190.125C320.527 190.534 320.667 190.933 320.667 191.32C320.667 191.923 320.366 192.419 319.763 192.806C319.182 193.172 318.428 193.355 317.502 193.355C316.339 193.355 315.435 192.989 314.789 192.257C314.143 191.525 313.82 190.513 313.82 189.221V178.142H313.367C313.088 178.142 312.765 178.153 312.398 178.174C312.032 178.196 311.709 178.228 311.429 178.271L311.462 177.334C311.483 177.054 311.58 176.839 311.752 176.688C311.925 176.538 312.14 176.462 312.398 176.462H313.82V174.007C313.82 173.448 314.013 173.006 314.401 172.683C314.789 172.339 315.284 172.166 315.887 172.166C316.641 172.166 317.308 172.425 317.89 172.942C317.631 173.889 317.47 175.063 317.405 176.462H317.986ZM337.066 188.543C337.41 188.693 337.582 188.962 337.582 189.35C337.582 189.608 337.507 189.921 337.356 190.287C336.947 191.299 336.215 192.074 335.16 192.612C334.126 193.151 332.877 193.42 331.413 193.42C328.958 193.42 327.02 192.666 325.599 191.159C324.199 189.652 323.499 187.509 323.499 184.731C323.499 181.996 324.188 179.865 325.567 178.336C326.945 176.785 328.915 176.01 331.478 176.01C333.351 176.01 334.869 176.43 336.032 177.27C337.195 178.088 337.776 179.262 337.776 180.79C337.776 182.384 337.13 183.611 335.838 184.473C334.568 185.313 332.834 185.732 330.638 185.732C329.389 185.732 328.28 185.679 327.311 185.571C327.462 187.574 327.968 189.006 328.829 189.867C329.69 190.728 330.864 191.159 332.35 191.159C333.513 191.159 334.503 190.922 335.321 190.448C336.161 189.975 336.743 189.339 337.066 188.543ZM331.348 177.334C330.078 177.334 329.077 177.937 328.344 179.143C327.634 180.328 327.279 182.018 327.279 184.214C327.838 184.279 328.409 184.311 328.99 184.311C330.455 184.311 331.65 184.021 332.576 183.439C333.502 182.858 333.965 181.792 333.965 180.241C333.965 179.186 333.717 178.443 333.222 178.013C332.727 177.56 332.102 177.334 331.348 177.334Z" fill="#271504"/>
<defs>
<linearGradient id="paint0_linear_48_27" x1="124.273" y1="70.3723" x2="124.273" y2="142.381" gradientUnits="userSpaceOnUse">
<stop stop-color="#F2CF15"/>
<stop offset="1" stop-color="#E06C00"/>
</linearGradient>
</defs>
</svg>
