<svg width="345" height="158" viewBox="0 0 345 158" fill="none" xmlns="http://www.w3.org/2000/svg">
<path d="M23.5631 39.5194C26.3815 39.9384 28.6095 41.0238 30.2472 42.7758C31.923 44.5278 32.7609 46.851 32.7609 49.7456C32.7609 53.5161 31.3517 56.3345 28.5333 58.2007C25.753 60.0669 21.7349 61 16.4791 61H10.1377C8.88089 61 7.85257 60.6572 7.05276 59.9717C6.25295 59.2861 5.85305 58.353 5.85305 57.1723V29.2933C5.85305 26.3988 5.49123 23.9994 4.76759 22.0951C7.12893 20.9525 10.5757 20.3812 15.108 20.3812C20.2496 20.3812 24.1534 21.1429 26.8194 22.6663C29.4855 24.1898 30.8185 26.6273 30.8185 29.9789C30.8185 32.3402 30.171 34.3778 28.8761 36.0917C27.6193 37.7675 25.8482 38.9101 23.5631 39.5194ZM13.337 23.0091V38.5482H16.3077C18.5167 38.5863 20.1544 37.9008 21.2208 36.4916C22.3253 35.0824 22.8775 33.121 22.8775 30.6073C22.8775 28.1698 22.2872 26.3036 21.1065 25.0086C19.9259 23.6756 17.9644 23.0091 15.2222 23.0091H13.337ZM16.1934 58.3721C19.088 58.3721 21.2017 57.6103 22.5348 56.0869C23.9059 54.5635 24.5914 52.4878 24.5914 49.8598C24.5914 46.6225 23.8678 44.3754 22.4205 43.1186C21.0113 41.8237 18.9737 41.1762 16.3077 41.1762H13.337V58.3721H16.1934ZM74.3857 54.3159C74.8427 54.5825 75.1855 55.0586 75.414 55.7441C75.6806 56.4297 75.8139 57.1533 75.8139 57.915C75.8139 58.791 75.6616 59.5337 75.3569 60.1431C75.0522 60.7144 74.5952 61 73.9858 61H55.8187C54.5619 61 53.5336 60.6572 52.7338 59.9717C51.9339 59.2861 51.534 58.353 51.534 57.1723V30.2645C51.534 27.37 51.1722 24.9706 50.4486 23.0662C51.3627 22.3045 52.2767 21.8094 53.1908 21.5809C54.1429 21.3143 55.495 21.181 57.247 21.181H73.8144C74.2334 21.181 74.538 21.3714 74.7285 21.7523C74.9189 22.1331 75.0141 22.6283 75.0141 23.2376C75.0141 24.1136 74.8237 25.0086 74.4428 25.9227C74.062 26.8368 73.5859 27.4271 73.0146 27.6937C68.5204 25.8656 63.8359 24.8944 58.9608 24.7801V38.3197H71.3579C71.5483 39.0053 71.6435 39.6527 71.6435 40.2621C71.6435 40.9858 71.5483 41.6904 71.3579 42.3759H59.018V57.4009C61.5316 57.3247 64.3119 56.9819 67.3588 56.3725C70.4057 55.7251 72.748 55.0395 74.3857 54.3159ZM123.16 56.5439C123.617 58.1055 124.227 59.2861 124.988 60.0859C123.998 61.2285 122.532 61.7998 120.589 61.7998C119.409 61.7998 118.399 61.5522 117.561 61.0571C116.762 60.562 116.267 59.8384 116.076 58.8862L113.505 49.2885H100.594L98.7089 56.6582C98.4423 57.6484 98.309 58.4863 98.309 59.1719C98.309 59.9717 98.5184 60.5811 98.9374 61C98.2138 61.2666 97.5473 61.457 96.9379 61.5713C96.3666 61.7236 95.662 61.7998 94.8241 61.7998C93.3768 61.7998 92.3104 61.5522 91.6249 61.0571C90.9774 60.562 90.6537 59.7622 90.6537 58.6577C90.6537 57.7436 90.9012 56.4487 91.3963 54.7729L102.651 21.3524C104.746 20.6668 106.84 20.3241 108.935 20.3241C111.22 20.3241 112.572 21.1429 112.991 22.7806L123.16 56.5439ZM112.42 45.2324L106.935 24.7801L101.622 45.2324H112.42ZM155.441 61.7998C150.375 61.7998 146.433 59.9907 143.615 56.3725C140.835 52.7544 139.445 47.6508 139.445 41.0619C139.445 34.473 140.892 29.3885 143.786 25.8084C146.681 22.1903 150.737 20.3812 155.955 20.3812C158.088 20.3812 160.125 20.6478 162.068 21.181C164.01 21.7142 165.591 22.495 166.809 23.5233C168.066 24.5516 168.695 25.7513 168.695 27.1224C168.695 28.3031 168.162 29.3314 167.095 30.2074C166.029 31.0453 164.562 31.4452 162.696 31.4071C162.125 25.7704 159.916 22.952 156.069 22.952C153.213 22.952 151.099 24.4564 149.728 27.4652C148.357 30.4359 147.671 34.9682 147.671 41.0619C147.671 47.1557 148.338 51.707 149.671 54.7158C151.004 57.6865 153.079 59.1719 155.898 59.1719C157.954 59.1719 159.63 58.4101 160.925 56.8867C162.22 55.3633 163.058 53.0781 163.439 50.0312C163.972 49.955 164.372 49.9169 164.639 49.9169C166.01 49.9169 167.19 50.2597 168.181 50.9453C169.209 51.6308 169.723 52.5639 169.723 53.7446C169.723 55.4204 169.038 56.8677 167.666 58.0864C166.295 59.3052 164.505 60.2383 162.296 60.8857C160.125 61.4951 157.84 61.7998 155.441 61.7998ZM218.295 52.9448C218.295 55.9536 218.657 58.353 219.38 60.1431C218.961 60.562 218.371 60.9429 217.609 61.2856C216.886 61.6284 216.048 61.7998 215.096 61.7998C213.839 61.7998 212.811 61.457 212.011 60.7715C211.211 60.0859 210.811 59.1528 210.811 57.9722V42.2045H195.615V52.9448C195.615 55.9536 195.976 58.353 196.7 60.1431C196.281 60.562 195.691 60.9429 194.929 61.2856C194.205 61.6284 193.368 61.7998 192.415 61.7998C191.159 61.7998 190.13 61.457 189.33 60.7715C188.531 60.0859 188.131 59.1528 188.131 57.9722V29.2933C188.131 26.3988 187.769 23.9994 187.045 22.0951C187.464 21.6761 188.035 21.2952 188.759 20.9525C189.521 20.6097 190.378 20.4383 191.33 20.4383C192.587 20.4383 193.615 20.7811 194.415 21.4666C195.215 22.1522 195.615 23.0853 195.615 24.266V38.2055H210.811V29.2933C210.811 26.3988 210.449 23.9994 209.726 22.0951C210.144 21.6761 210.716 21.2952 211.439 20.9525C212.201 20.6097 213.058 20.4383 214.01 20.4383C215.229 20.4383 216.238 20.7811 217.038 21.4666C217.876 22.1522 218.295 23.0853 218.295 24.266V52.9448Z" fill="#F5F5F5"/>
<path d="M53.7952 121.294C53.7952 125.941 54.2718 129.485 55.2249 131.928C53.5569 133.417 51.6505 134.162 49.5059 134.162C47.8378 134.162 46.4676 133.715 45.3953 132.821C44.3825 131.868 43.8761 130.587 43.8761 128.979L43.7868 103.154H17.9615V121.294C17.9615 125.941 18.4381 129.485 19.3913 131.928C17.7232 133.417 15.8169 134.162 13.6722 134.162C12.0041 134.162 10.6339 133.715 9.5616 132.821C8.54885 131.868 8.04247 130.587 8.04247 128.979L7.95311 82.6005C7.95311 78.0729 7.47652 74.5283 6.52334 71.9666C7.11907 71.4304 7.89353 70.9539 8.84671 70.5368C9.85947 70.0602 10.9914 69.8219 12.2424 69.8219C13.9105 69.8219 15.2807 70.2985 16.353 71.2517C17.4253 72.1453 17.9615 73.3964 17.9615 75.0049V97.6131H43.7868V82.6005C43.7868 78.3112 43.3102 74.7666 42.357 71.9666C43.9655 70.5368 45.8421 69.8219 47.9867 69.8219C49.7144 69.8219 51.1144 70.2985 52.1867 71.2517C53.259 72.1453 53.7952 73.3964 53.7952 75.0049V121.294ZM220.514 105.656C220.514 115.128 218.608 122.247 214.795 127.013C210.983 131.779 205.293 134.162 197.727 134.162C190.34 134.162 184.8 131.868 181.106 127.281C177.413 122.634 175.566 115.426 175.566 105.656V82.6005C175.566 78.0729 175.089 74.5283 174.136 71.9666C174.732 71.4304 175.506 70.9539 176.46 70.5368C177.472 70.0602 178.604 69.8219 179.855 69.8219C181.464 69.8219 182.804 70.2985 183.876 71.2517C184.949 72.1453 185.485 73.3964 185.485 75.0049V106.102C185.485 114.621 186.468 120.817 188.434 124.689C190.4 128.502 193.498 130.409 197.727 130.409C206.425 130.409 210.774 122.306 210.774 106.102V82.6005C210.774 78.3112 210.297 74.7666 209.344 71.9666C209.88 71.4304 210.625 70.9539 211.578 70.5368C212.591 70.0602 213.723 69.8219 214.974 69.8219C216.583 69.8219 217.893 70.2985 218.906 71.2517C219.978 72.1453 220.514 73.3964 220.514 75.0049V105.656ZM257.866 134.251C251.016 134.251 245.833 133.06 242.318 130.677C238.862 128.294 237.135 125.196 237.135 121.383C237.135 119.536 237.641 118.077 238.654 117.004C239.667 115.873 241.275 115.307 243.479 115.307C243.837 115.307 244.552 115.366 245.624 115.485C245.445 116.081 245.356 116.766 245.356 117.541C245.356 117.958 245.416 118.702 245.535 119.775C245.892 122.813 247.233 125.345 249.556 127.37C251.879 129.396 255.067 130.409 259.118 130.409C262.454 130.409 265.164 129.575 267.249 127.906C269.334 126.179 270.377 123.706 270.377 120.489C270.377 118.345 269.9 116.498 268.947 114.949C267.994 113.341 266.594 111.881 264.747 110.57C262.96 109.26 260.458 107.681 257.241 105.834C252.952 103.451 249.586 101.366 247.143 99.5791C244.76 97.7323 242.854 95.6472 241.424 93.3238C240.054 91.0004 239.369 88.2303 239.369 85.0133C239.369 79.8304 241.245 75.9878 244.999 73.4857C248.811 70.9241 253.667 69.6432 259.564 69.6432C265.164 69.6432 269.632 70.5964 272.968 72.5028C276.364 74.3496 278.062 76.9708 278.062 80.3665C278.062 83.4644 276.394 85.1026 273.058 85.2814C272.82 85.3409 272.462 85.3707 271.985 85.3707C271.509 85.3707 270.854 85.3111 270.02 85.192C270.079 84.8941 270.109 84.5069 270.109 84.0303C270.109 82.6601 269.9 81.5282 269.483 80.6346C269.126 78.4304 267.994 76.6729 266.088 75.3623C264.181 74.0517 261.649 73.3964 258.492 73.3964C255.811 73.3964 253.488 74.0517 251.522 75.3623C249.616 76.6134 248.662 78.6984 248.662 81.6176C248.662 84.5963 249.675 87.1281 251.701 89.2132C253.786 91.2983 257.449 93.7706 262.692 96.6302C266.326 98.6557 269.334 100.562 271.717 102.349C274.16 104.136 276.156 106.281 277.705 108.783C279.254 111.226 280.028 114.056 280.028 117.273C280.028 120.37 279.224 123.2 277.615 125.762C276.066 128.323 273.624 130.379 270.288 131.928C266.952 133.477 262.811 134.251 257.866 134.251ZM331.906 124.153C332.502 124.511 332.949 125.136 333.246 126.03C333.604 126.923 333.783 127.906 333.783 128.979C333.783 130.111 333.574 131.064 333.157 131.838C332.74 132.613 332.144 133 331.37 133H302.953C301.285 133 299.915 132.553 298.843 131.66C297.83 130.706 297.323 129.426 297.323 127.817L297.234 83.7622C297.234 79.3538 296.757 75.8985 295.804 73.3964C296.936 72.3836 298.098 71.7283 299.289 71.4304C300.54 71.073 302.298 70.8943 304.562 70.8943H331.012C332.085 70.8943 332.621 71.7879 332.621 73.5751C332.621 74.7666 332.353 75.9878 331.817 77.2389C331.34 78.4304 330.715 79.2048 329.94 79.5623C322.374 77.2389 314.779 75.9878 307.153 75.8091V97.8812H327.527C327.766 98.5961 327.885 99.4599 327.885 100.473C327.885 101.188 327.766 102.141 327.527 103.332H307.242V128.085C311.115 128.026 315.404 127.609 320.11 126.834C324.817 126 328.749 125.106 331.906 124.153Z" fill="#F5F5F5"/>
<ellipse cx="123.914" cy="106.217" rx="36.2178" ry="36.1634" fill="url(#paint0_linear_48_65)"/>
<path fill-rule="evenodd" clip-rule="evenodd" d="M163.044 111.349C162.843 115.179 161.771 119.968 160.528 122.59C159.482 124.797 157.202 128.304 155.561 130.231C152.103 134.293 146.495 138.264 141.911 139.898C141.044 140.207 140.153 140.698 139.93 140.99C139.562 141.473 139.815 141.503 142.726 141.324C149.134 140.93 153.882 138.845 158.322 134.475C163.143 129.73 165.975 122.41 165.476 115.988C165.314 113.902 164.204 109.496 163.463 107.996C163.342 107.751 163.154 109.26 163.044 111.349Z" fill="#03AFF0"/>
<path fill-rule="evenodd" clip-rule="evenodd" d="M97.632 105.331C100.927 103.669 105.399 102.216 108.129 101.921C110.427 101.673 114.343 101.751 116.663 102.09C121.55 102.803 127.285 105.2 130.623 107.925C131.255 108.44 132.049 108.887 132.389 108.919C132.952 108.971 132.869 108.764 131.468 106.627C128.385 101.922 124.599 99.2868 119.032 97.9701C112.986 96.5404 105.638 97.8491 100.473 101.275C98.7959 102.388 95.5816 105.324 94.6433 106.601C94.4901 106.809 95.8351 106.238 97.632 105.331Z" fill="#13EA00"/>
<path fill-rule="evenodd" clip-rule="evenodd" d="M104.019 101.159C104.396 98.9017 105.582 96.1427 106.802 94.6834C107.829 93.455 109.998 91.5512 111.528 90.5347C114.752 88.3933 119.843 86.4725 123.919 85.8591C124.69 85.743 125.492 85.5206 125.701 85.3648C126.047 85.1068 125.829 85.0693 123.285 84.9494C117.686 84.6852 113.443 85.5536 109.348 87.8018C104.902 90.2432 102.051 94.367 102.147 98.2171C102.178 99.4673 102.912 102.169 103.478 103.116C103.57 103.271 103.814 102.39 104.019 101.159Z" fill="#13EA00"/>
<path fill-rule="evenodd" clip-rule="evenodd" d="M99.4672 103.131C102.172 100.616 106.066 97.9746 108.607 96.9312C110.746 96.0529 114.529 95.0363 116.852 94.7156C121.744 94.0396 127.918 94.7449 131.879 96.4321C132.628 96.7512 133.515 96.9597 133.85 96.8953C134.405 96.7884 134.268 96.6128 132.33 94.9499C128.066 91.2894 123.699 89.8124 117.986 90.0984C111.782 90.409 105.086 93.7131 101.073 98.4432C99.7702 99.9791 97.4956 103.695 96.9477 105.183C96.8583 105.426 97.9921 104.502 99.4672 103.131Z" fill="#0FBF0B"/>
<path fill-rule="evenodd" clip-rule="evenodd" d="M95.1028 67.9077C97.2676 70.9025 99.4147 75.0965 100.142 77.7518C100.755 79.9868 101.307 83.876 101.346 86.227C101.428 91.1792 99.9884 97.241 97.8427 100.982C97.4369 101.69 97.124 102.548 97.1474 102.89C97.1867 103.455 97.377 103.339 99.2557 101.61C103.391 97.8035 105.377 93.633 105.78 87.9106C106.218 81.6966 103.751 74.6327 99.5502 70.0694C98.1862 68.5878 94.7806 65.8769 93.3737 65.1529C93.1439 65.0347 93.9221 66.2744 95.1028 67.9077Z" fill="#0FBF0B"/>
<path fill-rule="evenodd" clip-rule="evenodd" d="M99.4653 105.256C103.516 105.11 108.671 105.884 111.565 107.073C114.001 108.073 117.939 110.382 120.146 112.105C124.797 115.732 129.587 121.875 131.808 127.057C132.228 128.037 132.843 129.028 133.174 129.258C133.722 129.639 133.726 129.342 133.219 125.965C132.103 118.534 129.39 113.206 124.307 108.464C118.788 103.315 110.779 100.74 104.078 101.96C101.903 102.357 97.3892 104.088 95.8926 105.101C95.6482 105.266 97.256 105.336 99.4653 105.256Z" fill="#0FBF0B"/>
<path fill-rule="evenodd" clip-rule="evenodd" d="M71.2131 105.147C73.5817 103.378 76.8299 101.524 78.8371 100.794C80.5267 100.179 83.4267 99.4711 85.1568 99.2507C88.8011 98.7862 93.1421 99.3004 95.7233 100.502C96.2116 100.729 96.8179 100.879 97.0706 100.834C97.4888 100.76 97.4187 100.636 96.2945 99.4567C93.8203 96.8608 90.9113 95.8065 86.7389 95.9935C82.2081 96.1966 76.8268 98.5121 73.1475 101.841C71.9528 102.923 69.6962 105.541 69.0547 106.59C68.95 106.761 69.9213 106.112 71.2131 105.147Z" fill="#0FBF0B"/>
<path fill-rule="evenodd" clip-rule="evenodd" d="M72.7496 83.0016C75.7034 82.9456 79.4816 83.7774 81.6176 84.954C83.4156 85.9442 86.336 88.1962 87.9818 89.8612C91.4487 93.368 95.0685 99.2446 96.793 104.165C97.1193 105.096 97.5877 106.04 97.834 106.264C98.2417 106.633 98.2388 106.354 97.8009 103.167C96.8376 96.1511 94.7508 91.0831 90.9463 86.5192C86.8148 81.5634 80.9172 78.9794 76.0508 79.9928C74.4707 80.3219 71.2109 81.8605 70.1387 82.7831C69.9636 82.9338 71.1386 83.0321 72.7496 83.0016Z" fill="#13EA00"/>
<path fill-rule="evenodd" clip-rule="evenodd" d="M78.1471 69.4769C81.9366 71.57 86.2713 75.0236 88.3214 77.5831C90.0471 79.7374 92.485 83.7897 93.6343 86.4135C96.0558 91.9402 97.3276 99.6143 96.7304 105.093C96.6176 106.129 96.6778 107.28 96.8644 107.651C97.1736 108.264 97.3284 108.022 98.5792 104.965C101.333 98.2382 101.553 92.3704 99.3012 85.6904C96.8562 78.4367 90.8191 71.9411 84.0534 69.2843C81.8566 68.4217 76.8368 67.3809 74.9495 67.3966C74.6413 67.3992 76.0804 68.3353 78.1471 69.4769Z" fill="#0FBF0B"/>
<path fill-rule="evenodd" clip-rule="evenodd" d="M75.5859 136.604C73.0851 136.863 70.2227 137.61 70.2227 138.003C70.2227 138.154 70.5518 138.188 70.9542 138.079C71.3566 137.971 73.6913 138.042 76.1421 138.238C80.1903 138.561 81.0144 138.742 85.1411 140.215C90.1295 141.995 92.2868 142.974 101.176 147.497C112.63 153.324 118.635 155.624 125.847 156.946C129.837 157.677 131.031 157.765 134.888 157.61C137.835 157.492 140.106 157.214 141.63 156.786L143.929 156.139L140.098 156.105C130.658 156.019 124.647 153.898 101.163 142.367C99.8909 141.743 98.7502 141.232 98.6276 141.232C98.5051 141.232 97.1992 140.725 95.726 140.106C91.2472 138.223 82.115 136.186 78.8118 136.334C78.2176 136.361 76.7658 136.482 75.5859 136.604Z" fill="#273A8E"/>
<path fill-rule="evenodd" clip-rule="evenodd" d="M82.6486 128.996C83.1955 129.925 84.304 130.857 84.7255 130.743C84.8868 130.699 84.8876 130.557 84.728 130.427C84.5681 130.297 84.3921 129.34 84.3371 128.299C84.2461 126.581 84.3509 126.198 85.4814 124.115C86.8486 121.597 87.6644 120.447 91.5459 115.568C96.547 109.283 98.3607 106.206 98.9967 102.928C99.3487 101.115 99.4172 101.477 99.3939 100.01C99.3822 99.2761 99.2005 98.1728 98.9035 97.0675L98.2905 95.8347L98.1148 97.0542L97.6122 99.7352C96.8715 103.879 95.8639 104.293 86.0557 117.06C85.5244 117.752 85.1008 118.358 85.114 118.407C85.1273 118.456 84.7257 119.127 84.2215 119.898C82.6895 122.241 81.4957 126.497 82.011 127.779C82.1034 128.01 82.3905 128.558 82.6486 128.996Z" fill="#5A2D02"/>
<path fill-rule="evenodd" clip-rule="evenodd" d="M171.764 121.451C171.695 121.681 171.398 122.995 171.104 124.371C168.772 135.263 158.231 144.417 146.854 145.429C143.44 145.733 138.134 145.416 135.627 144.76C129.601 143.181 120.674 139.661 114.148 136.289C108.177 133.203 98.948 129.426 94.0142 128.048C89.231 126.711 80.1016 126.551 75.9038 127.729C69.5523 129.511 63.2114 133.065 59.2067 137.087L57.8323 138.467L59.5121 137.434C66.3554 133.227 70.9682 131.78 78.4483 131.495C86.9235 131.172 92.3267 132.697 103.798 138.648C110.515 142.133 113.191 143.537 114.488 144.256C115.244 144.675 116.206 145.127 116.626 145.26C117.046 145.394 118.294 145.931 119.399 146.455C122.694 148.016 129.062 150.114 132.814 150.873C137.844 151.891 145.238 151.866 149.304 150.817C160.057 148.043 168.558 139.547 171.09 129.043C171.864 125.83 172.464 121.033 172.09 121.033C171.979 121.033 171.833 121.221 171.764 121.451Z" fill="#0B75BF"/>
<defs>
<linearGradient id="paint0_linear_48_65" x1="123.914" y1="70.3723" x2="123.914" y2="142.381" gradientUnits="userSpaceOnUse">
<stop stop-color="#F2CF15"/>
<stop offset="1" stop-color="#E06C00"/>
</linearGradient>
</defs>
</svg>
